<?xml version="1.0" ?><svg enable-background="new 0 0 512 512" id="Layer_1" version="1.1" viewBox="0 0 512 512" xml:space="preserve" xmlns="http://www.w3.org/2000/svg" xmlns:xlink="http://www.w3.org/1999/xlink"><g><g><linearGradient gradientUnits="userSpaceOnUse" id="SVGID_1_" x1="0.0000038" x2="512" y1="256" y2="256"><stop offset="0" style="stop-color:#FFCA05"/><stop offset="1" style="stop-color:#FAAC18"/></linearGradient><circle cx="256" cy="256" fill="url(#SVGID_1_)" r="256"/><linearGradient gradientUnits="userSpaceOnUse" id="SVGID_2_" x1="42.6666679" x2="469.3333435" y1="256.0005188" y2="256.0005188"><stop offset="0" style="stop-color:#FAAC18"/><stop offset="1" style="stop-color:#FFCA05"/></linearGradient><path d="M256,469.3338623c-117.6314697,0-213.3333282-95.7023926-213.3333282-213.3333435    c0-117.6314545,95.7018585-213.333313,213.3333282-213.333313c117.636261,0,213.3333435,95.7018661,213.3333435,213.333313    C469.3333435,373.6314697,373.636261,469.3338623,256,469.3338623z" fill="url(#SVGID_2_)"/></g><g><polygon opacity="0.3" points="304.6560059,148.9989319 304.6560059,202.4570618 358.1135864,202.4570618   "/><path d="M264.0015869,267.506134c-23.203186,0-42.0799866,18.8768005-42.0799866,42.0794678    c0,23.1989441,18.8768005,42.0757446,42.0799866,42.0757446c23.1984253,0,42.0752258-18.8768005,42.0752258-42.0757446    C306.0768127,286.3829346,287.2000122,267.506134,264.0015869,267.506134z M294.0506592,314.5856018h-25.0490723v25.0490723h-10    v-25.0490723H233.953064v-10h25.0485229v-25.0533447h10v25.0533447h25.0490723V314.5856018z" opacity="0.3"/><path d="M294.6560059,212.4570618V144H164.8853302v240h198.2293243V212.4570618H294.6560059z     M186.9120026,192.7109375h65.9375916v10h-65.9375916V192.7109375z M186.9120026,225.2693329h87.4997406v10h-87.4997406    V225.2693329z M264.0015869,361.6613464c-28.7157135,0-52.0799866-23.3594666-52.0799866-52.0757446    c0-28.71521,23.3642731-52.0794678,52.0799866-52.0794678c28.7157593,0,52.0752258,23.3642578,52.0752258,52.0794678    C316.0768127,338.3018799,292.7173462,361.6613464,264.0015869,361.6613464z" opacity="0.3"/></g><g><polygon fill="#FFFFFF" points="296.6560059,140.9989319 296.6560059,194.4570618 350.1135864,194.4570618   "/><path d="M256.0015869,259.506134c-23.203186,0-42.0799866,18.8768005-42.0799866,42.0794678    c0,23.1989441,18.8768005,42.0757446,42.0799866,42.0757446c23.1984253,0,42.0752258-18.8768005,42.0752258-42.0757446    C298.0768127,278.3829346,279.2000122,259.506134,256.0015869,259.506134z M286.0506592,306.5856018h-25.0490723v25.0490723    h-9.9999847v-25.0490723H225.953064v-10h25.0485382v-25.0533447h9.9999847v25.0533447h25.0490723V306.5856018z" fill="#FFFFFF"/><path d="M286.6560059,204.4570618V136H156.8853302v240h198.2293243V204.4570618H286.6560059z     M178.9120026,184.7109375h65.9375916v10h-65.9375916V184.7109375z M178.9120026,217.2693329h87.4997406v10h-87.4997406    V217.2693329z M256.0015869,353.6613464c-28.7157135,0-52.0799866-23.3594666-52.0799866-52.0757446    c0-28.71521,23.3642731-52.0794678,52.0799866-52.0794678c28.7157593,0,52.0752258,23.3642578,52.0752258,52.0794678    C308.0768127,330.3018799,284.7173462,353.6613464,256.0015869,353.6613464z" fill="#FFFFFF"/></g></g></svg>