<svg width="81" height="55" viewBox="0 0 81 55" fill="none" xmlns="http://www.w3.org/2000/svg">
<path d="M72.6076 33.1024C72.0209 34.8694 69.9956 36.4395 70.6007 37.739C70.8308 38.2329 71.0619 38.7496 71.1682 39.2773C71.2372 39.5919 71.2487 39.9163 71.2021 40.235C70.9839 41.6111 69.6885 42.5251 68.4838 43.2368C68.4094 43.2806 68.3344 43.3251 68.2591 43.3698C67.1178 44.0496 65.9223 44.8324 65.5555 46.0873C65.3519 46.7844 65.4418 47.53 65.3575 48.2507C65.2776 48.9132 65.0512 49.5499 64.6946 50.1152H57.0013C56.3183 49.367 56.3751 48.1094 56.895 47.2273C57.4515 46.2832 58.3912 45.6416 59.2397 44.9437C59.9723 44.3403 60.6865 43.614 60.9661 42.7283C61.0105 42.5881 61.0433 42.4445 61.0641 42.299C61.132 41.8197 61.0953 39.3711 61.9315 37.8639C63.2241 35.5364 65.3209 36.1097 65.9617 34.7965C66.2075 34.2934 66.4192 28.1122 70.5036 29.254C70.9019 29.3599 71.2743 29.5453 71.5981 29.7989C71.922 30.0525 72.1905 30.3689 72.3873 30.729C72.5842 31.089 72.7052 31.4851 72.7431 31.8932C72.781 32.3012 72.7349 32.7126 72.6076 33.1024V33.1024Z" fill="#DEFAA3"/>
<path d="M78.4248 42.7675C78.3076 42.8477 78.1814 42.9144 78.0489 42.9661C76.9469 43.3771 73.882 43.3315 73.434 44.4133C73.2232 44.9219 73.1727 45.4831 72.9921 46.0034C72.5828 47.1836 71.5005 48.0685 70.2903 48.401C69.8547 48.5204 69.4037 48.576 68.9729 48.7091C68.1403 48.9669 67.4509 49.4859 66.8449 50.1148H56.9092C56.9048 49.4599 57.0669 48.8145 57.3803 48.2384C57.6938 47.6624 58.1486 47.1744 58.7024 46.8196C59.8072 46.127 61.2026 45.9976 62.2872 45.274C63.0023 44.7965 63.5166 44.1067 63.9247 43.3439C64.1843 42.8449 64.4136 42.331 64.6115 41.8048C64.9149 41.022 65.2322 40.1818 65.9215 39.697C66.2596 39.4786 66.6345 39.3224 67.0282 39.2358C68.0237 38.9769 68.7894 39.1292 69.5146 39.2769C70.3947 39.4555 71.2161 39.6259 72.3191 39.0436C74.2756 38.0102 77.136 32.8565 79.9946 37.7532C81.1404 39.7174 79.5589 42.0129 78.4248 42.7675Z" fill="#2DC66B"/>
<path d="M7.46923 33.1024C8.05605 34.8694 10.0813 36.4395 9.47616 37.739C9.24607 38.2329 9.01495 38.7496 8.9086 39.2773C8.83957 39.5919 8.82806 39.9163 8.87464 40.235C9.09283 41.6111 10.3884 42.5251 11.593 43.2368C11.6674 43.2806 11.7424 43.3251 11.8176 43.3698C12.959 44.0496 14.1545 44.8324 14.5212 46.0873C14.7248 46.7844 14.6349 47.53 14.7193 48.2507C14.7992 48.9131 15.0256 49.5499 15.3822 50.1152H23.0751C23.7581 49.367 23.7013 48.1094 23.1815 47.2273C22.625 46.2832 21.6852 45.6416 20.8368 44.9436C20.1043 44.3403 19.3901 43.614 19.1105 42.7283C19.066 42.5881 19.0332 42.4445 19.0123 42.299C18.9445 41.8197 18.9811 39.3711 18.1451 37.8639C16.8523 35.5364 14.7556 36.1097 14.1147 34.7965C13.8691 34.2934 13.6572 28.1122 9.57293 29.254C9.17471 29.36 8.80235 29.5454 8.47854 29.799C8.15472 30.0526 7.88623 30.369 7.68942 30.7291C7.4926 31.0891 7.37158 31.4852 7.33373 31.8932C7.29587 32.3012 7.34197 32.7127 7.46923 33.1024V33.1024Z" fill="#DEFAA3"/>
<path d="M1.98287 42.7675C2.10011 42.8477 2.22619 42.9144 2.35867 42.9661C3.46067 43.3771 6.5256 43.3315 6.9736 44.4133C7.18443 44.9219 7.23486 45.4831 7.41546 46.0034C7.82531 47.1836 8.90712 48.0685 10.1173 48.401C10.5528 48.5204 11.0038 48.576 11.4347 48.7091C12.2672 48.9669 12.9566 49.4859 13.5626 50.1148H23.4985C23.5029 49.4599 23.3408 48.8145 23.0273 48.2384C22.7138 47.6624 22.259 47.1743 21.7052 46.8196C20.6005 46.127 19.205 45.9976 18.1204 45.274C17.4054 44.7965 16.891 44.1067 16.4829 43.3439C16.2233 42.8449 15.994 42.331 15.7962 41.8048C15.4927 41.022 15.1755 40.1817 14.4861 39.697C14.148 39.4786 13.7731 39.3224 13.3794 39.2358C12.3839 38.9769 11.6183 39.1292 10.8931 39.2769C10.0129 39.4555 9.19146 39.6259 8.08853 39.0436C6.1323 38.0103 3.27189 32.8572 0.413238 37.7535C-0.732771 39.7174 0.848679 42.0129 1.98287 42.7675Z" fill="#2DC66B"/>
<path d="M56.4972 41.7704H23.9461V0H49.5697L56.4972 7.27697V41.7704Z" fill="#DEFAA3"/>
<path d="M49.5697 0V7.27698H56.4972L49.5697 0Z" fill="#D1F18C"/>
<path d="M40.7294 17.9448H39.6742V16.7033H40.7294V17.9448Z" fill="white"/>
<path d="M22.1769 43.5459V48.1269C22.1769 51.9223 30.2475 55 40.2059 55C50.1602 55 58.2308 51.9223 58.2308 48.1269V43.5459H22.1769Z" fill="#229952"/>
<path d="M58.2308 43.5459C58.2308 47.3413 50.1602 50.4158 40.2059 50.4158C30.2475 50.4158 22.1769 47.3413 22.1769 43.5459C22.1769 39.7505 30.2475 36.6696 40.2059 36.6696C50.1602 36.6696 58.2308 39.7505 58.2308 43.5459Z" fill="#37E77D"/>
<path d="M22.1769 37.9918V42.576C22.1769 46.3714 30.2475 49.4491 40.2059 49.4491C50.1602 49.4491 58.2308 46.3714 58.2308 42.576V37.9918H22.1769Z" fill="#229952"/>
<path d="M58.2308 37.9918C58.2308 41.7904 50.1602 44.8649 40.2059 44.8649C30.2475 44.8649 22.1769 41.7904 22.1769 37.9918C22.1769 34.1996 30.2475 31.1187 40.2059 31.1187C50.1602 31.1187 58.2308 34.1996 58.2308 37.9918Z" fill="#37E77D"/>
<path d="M22.1769 32.441V37.0252C22.1769 40.8174 30.2475 43.8983 40.2059 43.8983C50.1602 43.8983 58.2308 40.8174 58.2308 37.0252V32.441H22.1769Z" fill="#229952"/>
<path d="M58.2308 32.441C58.2308 36.2396 50.1602 39.3141 40.2059 39.3141C30.2475 39.3141 22.1769 36.2396 22.1769 32.441C22.1769 28.6456 30.2475 25.5679 40.2059 25.5679C50.1602 25.5679 58.2308 28.6456 58.2308 32.441Z" fill="#37E77D"/>
<path d="M22.1769 26.8901V31.4743C22.1769 35.2665 30.2475 38.3474 40.2059 38.3474C50.1602 38.3474 58.2308 35.2665 58.2308 31.4743V26.8901H22.1769Z" fill="#229952"/>
<path d="M58.2308 26.8901C58.2308 30.6855 50.1602 33.7632 40.2059 33.7632C30.2475 33.7632 22.1769 30.6855 22.1769 26.8901C22.1769 23.0947 30.2475 20.017 40.2059 20.017C50.1602 20.017 58.2308 23.0947 58.2308 26.8901Z" fill="#37E77D"/>
<path d="M22.1769 21.3393V25.9235C22.1769 29.7157 30.2475 32.7934 40.2059 32.7934C50.1602 32.7934 58.2308 29.7157 58.2308 25.9235V21.3393H22.1769Z" fill="#229952"/>
<path d="M58.2308 21.3393C58.2308 25.1347 50.1602 28.2124 40.2059 28.2124C30.2475 28.2124 22.1769 25.1347 22.1769 21.3393C22.1769 17.5439 30.2475 14.4662 40.2059 14.4662C50.1602 14.4662 58.2308 17.5439 58.2308 21.3393Z" fill="#D1F18C"/>
<g clip-path="url(#clip0_10_1867)">
<path d="M47.4147 15.4456C47.4147 15.4763 47.4116 15.4978 47.4054 15.5101C47.0103 17.1545 46.1831 18.4876 44.9238 19.5092C43.6644 20.5309 42.189 21.0417 40.4976 21.0417C39.5963 21.0417 38.7243 20.873 37.8817 20.5355C37.039 20.198 36.2875 19.7163 35.6269 19.0904L34.4324 20.2778C34.3151 20.3943 34.1762 20.4526 34.0157 20.4526C33.8552 20.4526 33.7163 20.3943 33.599 20.2778C33.4817 20.1612 33.4231 20.0231 33.4231 19.8636V15.7402C33.4231 15.5806 33.4817 15.4426 33.599 15.326C33.7163 15.2094 33.8552 15.1511 34.0157 15.1511H38.1641C38.3246 15.1511 38.4635 15.2094 38.5808 15.326C38.6981 15.4426 38.7567 15.5806 38.7567 15.7402C38.7567 15.8997 38.6981 16.0378 38.5808 16.1543L37.3122 17.4153C37.7505 17.8203 38.2474 18.1332 38.803 18.3541C39.3586 18.575 39.9358 18.6855 40.5346 18.6855C41.3618 18.6855 42.1335 18.486 42.8496 18.0872C43.5657 17.6884 44.1398 17.1392 44.5719 16.4397C44.6398 16.3354 44.8034 15.9764 45.0627 15.3628C45.1121 15.2217 45.2047 15.1511 45.3405 15.1511H47.1183C47.1986 15.1511 47.268 15.1803 47.3267 15.2385C47.3853 15.2968 47.4147 15.3659 47.4147 15.4456ZM47.6462 8.08241V12.2058C47.6462 12.3654 47.5875 12.5034 47.4702 12.62C47.3529 12.7366 47.214 12.7949 47.0535 12.7949H42.9051C42.7446 12.7949 42.6057 12.7366 42.4884 12.62C42.3711 12.5034 42.3125 12.3654 42.3125 12.2058C42.3125 12.0463 42.3711 11.9082 42.4884 11.7916L43.7663 10.5215C42.8527 9.68085 41.7754 9.26053 40.5346 9.26053C39.7074 9.26053 38.9358 9.45995 38.2197 9.85879C37.5036 10.2576 36.9295 10.8068 36.4973 11.5063C36.4294 11.6106 36.2658 11.9696 36.0066 12.5832C35.9572 12.7243 35.8646 12.7949 35.7288 12.7949H33.8861C33.8058 12.7949 33.7364 12.7657 33.6777 12.7074C33.6191 12.6491 33.5898 12.5801 33.5898 12.5003V12.4359C33.991 10.7915 34.8244 9.45842 36.0899 8.43677C37.3554 7.41512 38.837 6.9043 40.5346 6.9043C41.4359 6.9043 42.3125 7.07457 43.1644 7.41512C44.0163 7.75567 44.7725 8.23581 45.4331 8.85555L46.6368 7.66823C46.7541 7.55165 46.893 7.49335 47.0535 7.49335C47.214 7.49335 47.3529 7.55165 47.4702 7.66823C47.5875 7.78482 47.6462 7.92288 47.6462 8.08241Z" fill="#229952"/>
</g>
<defs>
<clipPath id="clip0_10_1867">
<rect width="14.2231" height="14.1374" fill="white" transform="translate(33.4231 6.9043)"/>
</clipPath>
</defs>
</svg>
