<svg width="81" height="55" viewBox="0 0 81 55" fill="none" xmlns="http://www.w3.org/2000/svg">
<path d="M72.5922 33.1024C72.0055 34.8694 69.9802 36.4395 70.5853 37.739C70.8155 38.2329 71.0465 38.7496 71.1528 39.2773C71.2218 39.5919 71.2333 39.9163 71.1867 40.235C70.9685 41.6111 69.6731 42.5251 68.4685 43.2368C68.394 43.2806 68.319 43.3251 68.2438 43.3698C67.1024 44.0496 65.9069 44.8324 65.5401 46.0873C65.3365 46.7844 65.4264 47.53 65.3421 48.2507C65.2622 48.9132 65.0358 49.5499 64.6792 50.1152H56.9859C56.3029 49.367 56.3598 48.1094 56.8796 47.2273C57.4361 46.2832 58.3758 45.6416 59.2243 44.9437C59.9569 44.3403 60.6711 43.614 60.9507 42.7283C60.9951 42.5881 61.0279 42.4445 61.0488 42.299C61.1166 41.8197 61.0799 39.3711 61.9161 37.8639C63.2087 35.5364 65.3056 36.1097 65.9463 34.7965C66.1921 34.2934 66.4038 28.1122 70.4882 29.254C70.8865 29.3599 71.2589 29.5453 71.5827 29.7989C71.9066 30.0525 72.1751 30.3689 72.372 30.729C72.5688 31.089 72.6898 31.4851 72.7277 31.8932C72.7656 32.3012 72.7195 32.7126 72.5922 33.1024V33.1024Z" fill="#E0E0E0"/>
<path d="M78.4094 42.7675C78.2922 42.8477 78.1661 42.9144 78.0336 42.9661C76.9316 43.3771 73.8666 43.3315 73.4186 44.4133C73.2078 44.9219 73.1574 45.4831 72.9768 46.0034C72.5674 47.1836 71.4851 48.0685 70.2749 48.401C69.8394 48.5204 69.3883 48.576 68.9575 48.7091C68.125 48.9669 67.4355 49.4859 66.8295 50.1148H56.8938C56.8894 49.4599 57.0515 48.8145 57.365 48.2384C57.6784 47.6624 58.1332 47.1744 58.6871 46.8196C59.7918 46.127 61.1872 45.9976 62.2718 45.274C62.9869 44.7965 63.5012 44.1067 63.9094 43.3439C64.1689 42.8449 64.3982 42.331 64.5961 41.8048C64.8995 41.022 65.2168 40.1818 65.9062 39.697C66.2443 39.4786 66.6191 39.3224 67.0128 39.2358C68.0084 38.9769 68.774 39.1292 69.4992 39.2769C70.3793 39.4555 71.2008 39.6259 72.3037 39.0436C74.2602 38.0102 77.1206 32.8565 79.9792 37.7532C81.125 39.7174 79.5435 42.0129 78.4094 42.7675Z" fill="#666666"/>
<path d="M7.45385 33.1024C8.04067 34.8694 10.0659 36.4395 9.46078 37.739C9.23069 38.2329 8.99957 38.7496 8.89322 39.2773C8.82419 39.5919 8.81268 39.9163 8.85926 40.235C9.07744 41.6111 10.373 42.5251 11.5776 43.2368C11.652 43.2806 11.727 43.3251 11.8022 43.3698C12.9437 44.0496 14.1392 44.8324 14.5058 46.0873C14.7094 46.7844 14.6195 47.53 14.7039 48.2507C14.7838 48.9131 15.0102 49.5499 15.3668 50.1152H23.0597C23.7427 49.367 23.6859 48.1094 23.1661 47.2273C22.6096 46.2832 21.6699 45.6416 20.8214 44.9436C20.0889 44.3403 19.3747 43.614 19.0951 42.7283C19.0506 42.5881 19.0178 42.4445 18.9969 42.299C18.9291 41.8197 18.9658 39.3711 18.1297 37.8639C16.8369 35.5364 14.7402 36.1097 14.0993 34.7965C13.8537 34.2934 13.6418 28.1122 9.55755 29.254C9.15932 29.36 8.78697 29.5454 8.46315 29.799C8.13934 30.0526 7.87085 30.369 7.67404 30.7291C7.47722 31.0891 7.3562 31.4852 7.31834 31.8932C7.28049 32.3012 7.32659 32.7127 7.45385 33.1024V33.1024Z" fill="#E0E0E0"/>
<path d="M1.96749 42.7675C2.08472 42.8477 2.21081 42.9144 2.34329 42.9661C3.44529 43.3771 6.51021 43.3315 6.95822 44.4133C7.16905 44.9219 7.21948 45.4831 7.40008 46.0034C7.80993 47.1836 8.89174 48.0685 10.1019 48.401C10.5374 48.5204 10.9885 48.576 11.4193 48.7091C12.2518 48.9669 12.9412 49.4859 13.5472 50.1148H23.4831C23.4875 49.4599 23.3254 48.8145 23.0119 48.2384C22.6984 47.6624 22.2437 47.1743 21.6898 46.8196C20.5851 46.127 19.1896 45.9976 18.105 45.274C17.39 44.7965 16.8757 44.1067 16.4675 43.3439C16.2079 42.8449 15.9786 42.331 15.7808 41.8048C15.4773 41.022 15.1601 40.1817 14.4707 39.697C14.1326 39.4786 13.7577 39.3224 13.364 39.2358C12.3685 38.9769 11.6029 39.1292 10.8777 39.2769C9.99755 39.4555 9.17608 39.6259 8.07315 39.0436C6.11692 38.0103 3.25651 32.8572 0.397857 37.7535C-0.748152 39.7174 0.833298 42.0129 1.96749 42.7675Z" fill="#666666"/>
<path d="M56.4818 41.7704H23.9307V0H49.5543L56.4818 7.27697V41.7704Z" fill="#E0E0E0"/>
<path d="M49.5543 0V7.27698H56.4818L49.5543 0Z" fill="#CECECE"/>
<path d="M40.714 17.9448H39.6588V16.7033H40.714V17.9448Z" fill="white"/>
<path d="M22.1615 43.5459V48.1269C22.1615 51.9223 30.2321 55 40.1905 55C50.1448 55 58.2154 51.9223 58.2154 48.1269V43.5459H22.1615Z" fill="#474747"/>
<path d="M58.2154 43.5459C58.2154 47.3413 50.1448 50.4158 40.1905 50.4158C30.2321 50.4158 22.1615 47.3413 22.1615 43.5459C22.1615 39.7505 30.2321 36.6696 40.1905 36.6696C50.1448 36.6696 58.2154 39.7505 58.2154 43.5459Z" fill="#CECECE"/>
<path d="M22.1615 37.9918V42.576C22.1615 46.3714 30.2321 49.4491 40.1905 49.4491C50.1448 49.4491 58.2154 46.3714 58.2154 42.576V37.9918H22.1615Z" fill="#474747"/>
<path d="M58.2154 37.9918C58.2154 41.7904 50.1448 44.8649 40.1905 44.8649C30.2321 44.8649 22.1615 41.7904 22.1615 37.9918C22.1615 34.1996 30.2321 31.1187 40.1905 31.1187C50.1448 31.1187 58.2154 34.1996 58.2154 37.9918Z" fill="#CECECE"/>
<path d="M22.1615 32.441V37.0252C22.1615 40.8174 30.2321 43.8983 40.1905 43.8983C50.1448 43.8983 58.2154 40.8174 58.2154 37.0252V32.441H22.1615Z" fill="#474747"/>
<path d="M58.2154 32.441C58.2154 36.2396 50.1448 39.3141 40.1905 39.3141C30.2321 39.3141 22.1615 36.2396 22.1615 32.441C22.1615 28.6456 30.2321 25.5679 40.1905 25.5679C50.1448 25.5679 58.2154 28.6456 58.2154 32.441Z" fill="#CECECE"/>
<path d="M22.1615 26.8901V31.4743C22.1615 35.2665 30.2321 38.3474 40.1905 38.3474C50.1448 38.3474 58.2154 35.2665 58.2154 31.4743V26.8901H22.1615Z" fill="#474747"/>
<path d="M58.2154 26.8901C58.2154 30.6855 50.1448 33.7632 40.1905 33.7632C30.2321 33.7632 22.1615 30.6855 22.1615 26.8901C22.1615 23.0947 30.2321 20.017 40.1905 20.017C50.1448 20.017 58.2154 23.0947 58.2154 26.8901Z" fill="#CECECE"/>
<path d="M22.1615 21.3393V25.9235C22.1615 29.7157 30.2321 32.7934 40.1905 32.7934C50.1448 32.7934 58.2154 29.7157 58.2154 25.9235V21.3393H22.1615Z" fill="#474747"/>
<path d="M58.2154 21.3393C58.2154 25.1347 50.1448 28.2124 40.1905 28.2124C30.2321 28.2124 22.1615 25.1347 22.1615 21.3393C22.1615 17.5439 30.2321 14.4662 40.1905 14.4662C50.1448 14.4662 58.2154 17.5439 58.2154 21.3393Z" fill="#CECECE"/>
<g clip-path="url(#clip0_14_2053)">
<path d="M47.3993 15.4456C47.3993 15.4763 47.3962 15.4978 47.39 15.5101C46.9949 17.1545 46.1677 18.4876 44.9084 19.5092C43.6491 20.5309 42.1737 21.0417 40.4822 21.0417C39.5809 21.0417 38.7089 20.873 37.8663 20.5355C37.0237 20.198 36.2721 19.7163 35.6115 19.0904L34.417 20.2778C34.2997 20.3943 34.1608 20.4526 34.0003 20.4526C33.8398 20.4526 33.7009 20.3943 33.5836 20.2778C33.4663 20.1612 33.4077 20.0231 33.4077 19.8636V15.7402C33.4077 15.5806 33.4663 15.4426 33.5836 15.326C33.7009 15.2094 33.8398 15.1511 34.0003 15.1511H38.1487C38.3092 15.1511 38.4481 15.2094 38.5654 15.326C38.6827 15.4426 38.7414 15.5806 38.7414 15.7402C38.7414 15.8997 38.6827 16.0378 38.5654 16.1543L37.2968 17.4153C37.7351 17.8203 38.2321 18.1332 38.7877 18.3541C39.3432 18.575 39.9204 18.6855 40.5192 18.6855C41.3464 18.6855 42.1181 18.486 42.8342 18.0872C43.5503 17.6884 44.1244 17.1392 44.5565 16.4397C44.6244 16.3354 44.788 15.9764 45.0473 15.3628C45.0967 15.2217 45.1893 15.1511 45.3251 15.1511H47.103C47.1832 15.1511 47.2527 15.1803 47.3113 15.2385C47.37 15.2968 47.3993 15.3659 47.3993 15.4456ZM47.6308 8.08241V12.2058C47.6308 12.3654 47.5721 12.5034 47.4548 12.62C47.3375 12.7366 47.1987 12.7949 47.0381 12.7949H42.8898C42.7292 12.7949 42.5904 12.7366 42.4731 12.62C42.3558 12.5034 42.2971 12.3654 42.2971 12.2058C42.2971 12.0463 42.3558 11.9082 42.4731 11.7916L43.7509 10.5215C42.8373 9.68085 41.7601 9.26053 40.5192 9.26053C39.692 9.26053 38.9204 9.45995 38.2043 9.85879C37.4882 10.2576 36.9141 10.8068 36.482 11.5063C36.4141 11.6106 36.2505 11.9696 35.9912 12.5832C35.9418 12.7243 35.8492 12.7949 35.7134 12.7949H33.8707C33.7904 12.7949 33.721 12.7657 33.6623 12.7074C33.6037 12.6491 33.5744 12.5801 33.5744 12.5003V12.4359C33.9756 10.7915 34.809 9.45842 36.0745 8.43677C37.34 7.41512 38.8216 6.9043 40.5192 6.9043C41.4205 6.9043 42.2971 7.07457 43.149 7.41512C44.0009 7.75567 44.7571 8.23581 45.4177 8.85555L46.6215 7.66823C46.7387 7.55165 46.8776 7.49335 47.0381 7.49335C47.1987 7.49335 47.3375 7.55165 47.4548 7.66823C47.5721 7.78482 47.6308 7.92288 47.6308 8.08241Z" fill="#474747"/>
</g>
<defs>
<clipPath id="clip0_14_2053">
<rect width="14.2231" height="14.1374" fill="white" transform="translate(33.4077 6.9043)"/>
</clipPath>
</defs>
</svg>
