<svg width="85" height="54" viewBox="0 0 85 54" fill="none" xmlns="http://www.w3.org/2000/svg">
<path d="M74.5768 33.303C73.9901 35.0807 71.9648 36.6604 72.5699 37.9677C72.8001 38.4646 73.0311 38.9844 73.1375 39.5153C73.2065 39.8318 73.2179 40.1582 73.1713 40.4788C72.9531 41.8632 71.6577 42.7828 70.4531 43.4988C70.3786 43.5428 70.3037 43.5877 70.2284 43.6326C69.087 44.3166 67.8915 45.1041 67.5247 46.3666C67.3212 47.068 67.411 47.8181 67.3267 48.5431C67.2468 49.2096 67.0204 49.8501 66.6638 50.4189H58.9706C58.2875 49.6662 58.3444 48.401 58.8642 47.5135C59.4207 46.5637 60.3604 45.9182 61.2089 45.216C61.9415 44.609 62.6557 43.8784 62.9353 42.9872C62.9797 42.8462 63.0125 42.7017 63.0334 42.5554C63.1012 42.0731 63.0645 39.6097 63.9007 38.0933C65.1934 35.7518 67.2902 36.3285 67.931 35.0074C68.1767 34.5012 68.3885 28.2825 72.4729 29.4313C72.8711 29.5379 73.2435 29.7244 73.5673 29.9795C73.8912 30.2346 74.1597 30.5529 74.3566 30.9152C74.5534 31.2774 74.6745 31.6759 74.7123 32.0864C74.7502 32.4969 74.7041 32.9109 74.5768 33.303V33.303Z" fill="#E0E0E0"/>
<path d="M82.0479 43.0266C81.9306 43.1074 81.8045 43.1744 81.672 43.2265C80.57 43.64 77.5051 43.5941 77.0571 44.6824C76.8462 45.1942 76.7958 45.7588 76.6152 46.2822C76.2058 47.4695 75.1236 48.3598 73.9134 48.6944C73.4778 48.8145 73.0267 48.8704 72.596 49.0043C71.7634 49.2637 71.074 49.7858 70.468 50.4185H60.5323C60.5279 49.7596 60.6899 49.1103 61.0034 48.5308C61.3169 47.9512 61.7717 47.4602 62.3255 47.1033C63.4303 46.4065 64.8257 46.2764 65.9103 45.5484C66.6254 45.068 67.1396 44.374 67.5478 43.6066C67.8074 43.1046 68.0367 42.5875 68.2346 42.0582C68.538 41.2706 68.8553 40.4253 69.5446 39.9375C69.8827 39.7178 70.2576 39.5607 70.6513 39.4736C71.6468 39.2131 72.4125 39.3663 73.1377 39.5149C74.0177 39.6946 74.8392 39.8661 75.9421 39.2802C77.8987 38.2405 80.7591 33.0556 83.6176 37.982C84.7635 39.9581 83.182 42.2675 82.0479 43.0266Z" fill="#666666"/>
<path d="M9.43846 33.303C10.0253 35.0807 12.0505 36.6604 11.4454 37.9677C11.2153 38.4646 10.9842 38.9844 10.8778 39.5153C10.8088 39.8318 10.7973 40.1582 10.8439 40.4788C11.0621 41.8632 12.3576 42.7828 13.5622 43.4988C13.6366 43.5428 13.7116 43.5877 13.7868 43.6326C14.9283 44.3166 16.1238 45.1041 16.4905 46.3666C16.694 47.068 16.6042 47.8181 16.6885 48.5431C16.7685 49.2096 16.9948 49.8501 17.3514 50.4189H25.0444C25.7273 49.6662 25.6705 48.401 25.1507 47.5135C24.5942 46.5637 23.6545 45.9182 22.806 45.2159C22.0735 44.609 21.3593 43.8784 21.0797 42.9872C21.0353 42.8462 21.0024 42.7017 20.9815 42.5554C20.9137 42.0731 20.9504 39.6097 20.1143 38.0933C18.8216 35.7518 16.7248 36.3285 16.084 35.0074C15.8383 34.5012 15.6265 28.2825 11.5422 29.4313C11.1439 29.5379 10.7716 29.7244 10.4478 29.9796C10.124 30.2347 9.85546 30.553 9.65865 30.9153C9.46183 31.2775 9.34081 31.676 9.30296 32.0865C9.2651 32.497 9.31121 32.9109 9.43846 33.303V33.303Z" fill="#E0E0E0"/>
<path d="M1.96749 43.0266C2.08472 43.1074 2.21081 43.1744 2.34329 43.2265C3.44529 43.64 6.51021 43.5941 6.95822 44.6824C7.16905 45.1942 7.21948 45.7587 7.40008 46.2822C7.80993 47.4695 8.89174 48.3598 10.1019 48.6943C10.5374 48.8145 10.9885 48.8704 11.4193 49.0043C12.2518 49.2637 12.9412 49.7858 13.5472 50.4185H23.4831C23.4875 49.7596 23.3254 49.1103 23.0119 48.5308C22.6984 47.9512 22.2437 47.4602 21.6898 47.1033C20.5851 46.4065 19.1896 46.2763 18.105 45.5484C17.39 45.068 16.8757 44.374 16.4675 43.6066C16.2079 43.1046 15.9786 42.5875 15.7808 42.0582C15.4773 41.2705 15.1601 40.4252 14.4707 39.9375C14.1326 39.7178 13.7577 39.5607 13.364 39.4736C12.3685 39.2131 11.6029 39.3663 10.8777 39.5149C9.99755 39.6946 9.17608 39.8661 8.07315 39.2802C6.11692 38.2406 3.25651 33.0563 0.397857 37.9823C-0.748152 39.9581 0.833298 42.2675 1.96749 43.0266Z" fill="#666666"/>
<path d="M58.4665 42.0236H25.9153V0H51.5389L58.4665 7.32108V42.0236Z" fill="#E0E0E0"/>
<path d="M51.5389 0V7.32108H58.4665L51.5389 0Z" fill="#CECECE"/>
<path d="M49.144 18.3047V20.3385C49.144 20.6846 49.0191 21.0164 48.7969 21.2611C48.5746 21.5058 48.2732 21.6433 47.9589 21.6433H24.1851C23.8708 21.6433 23.5694 21.7808 23.3471 22.0255C23.1249 22.2702 23 22.6021 23 22.9481V52.6952C23 53.0412 23.1249 53.3731 23.3471 53.6178C23.5694 53.8625 23.8708 54 24.1851 54H60.8149C60.9706 54 61.1247 53.9663 61.2685 53.9007C61.4122 53.8351 61.5429 53.739 61.6529 53.6178C61.763 53.4966 61.8503 53.3528 61.9098 53.1945C61.9694 53.0362 62 52.8665 62 52.6952V18.3047C62 18.1334 61.9693 17.9637 61.9098 17.8054C61.8502 17.6471 61.7629 17.5033 61.6529 17.3821C61.5429 17.261 61.4122 17.1649 61.2684 17.0993C61.1247 17.0337 60.9706 17 60.8149 17H50.3291C50.1735 17 50.0194 17.0337 49.8756 17.0993C49.7318 17.1649 49.6011 17.261 49.4911 17.3821C49.381 17.5033 49.2937 17.6471 49.2342 17.8054C49.1746 17.9637 49.144 18.1334 49.144 18.3047Z" fill="#474747"/>
<path d="M41.9277 46.8555C46.8584 46.8555 50.8555 42.8584 50.8555 37.9277C50.8555 32.9971 46.8584 29 41.9277 29C36.9971 29 33 32.9971 33 37.9277C33 42.8584 36.9971 46.8555 41.9277 46.8555Z" fill="#E0E0E0"/>
<path d="M43.1073 33.0875H40.6179V43.2767H43.1073V33.0875Z" fill="#474747"/>
<path d="M46.9572 39.427V36.9376H36.768V39.427H46.9572Z" fill="#474747"/>
</svg>
