<?xml version="1.0" encoding="utf-8"?>
<!-- Generator: Adobe Illustrator 15.0.0, SVG Export Plug-In . SVG Version: 6.00 Build 0)  -->
<!DOCTYPE svg PUBLIC "-//W3C//DTD SVG 1.1//EN" "http://www.w3.org/Graphics/SVG/1.1/DTD/svg11.dtd">
<svg version="1.1" id="Layer_1" xmlns="http://www.w3.org/2000/svg" xmlns:xlink="http://www.w3.org/1999/xlink" x="0px" y="0px"
	 width="141.73px" height="141.73px" viewBox="0 0 141.73 141.73" enable-background="new 0 0 141.73 141.73" xml:space="preserve">
<g>
	<path fill="#8BC751" d="M13.332,80.377c2.073,0,3.938,0.859,5.28,2.232l32.101-18.665c-0.099-0.48-0.149-0.977-0.149-1.486
		c0-4.076,3.304-7.383,7.381-7.383c4.076,0,7.383,3.307,7.383,7.383c0,0.602-0.092,1.178-0.229,1.736l9.616,11.213
		c1.331-1.297,3.144-2.104,5.149-2.104c2.896,0,5.378,1.684,6.587,4.113l36.595-20.711c-0.315-0.822-0.507-1.707-0.507-2.639
		c0-4.076,3.304-7.383,7.381-7.383c0.324,0,0.631,0.055,0.943,0.094v-9.365L72.007,3.432L50.403,15.904V8.548H37.062v15.059
		l-23.91,13.807v42.981C13.214,80.393,13.27,80.377,13.332,80.377z M74.024,22.186h7.903v7.903h-7.903V22.186z M74.024,34.123h7.903
		v7.903h-7.903V34.123z M62.089,22.186h7.902v7.903h-7.902V22.186z M62.089,34.123h7.902v7.903h-7.902V34.123z"/>
	<g>
		<polygon fill="#00A068" points="89.729,129.123 101.142,122.535 101.142,73.78 89.729,80.238 		"/>
		<polygon fill="#00A068" points="105.21,120.184 116.622,113.598 116.622,65.017 105.21,71.476 		"/>
		<polygon fill="#00A068" points="27.802,113.83 39.214,120.422 39.214,75.337 27.802,81.973 		"/>
		<path fill="#00A068" d="M20.714,87.758c0,4.076-3.306,7.383-7.383,7.383c-0.062,0-0.118-0.016-0.179-0.018v10.25l10.58,6.109
			V84.338l-3.192,1.855C20.65,86.699,20.714,87.219,20.714,87.758z"/>
		<path fill="#00A068" d="M43.284,72.97v49.802l11.412,6.588V69.058c-0.78-0.387-1.487-0.891-2.083-1.514L43.284,72.97z"/>
		<path fill="#00A068" d="M58.765,69.757v61.952l11.411,6.59V76.364l-7.269-8.475C61.788,68.915,60.354,69.579,58.765,69.757z"/>
		<path fill="#00A068" d="M79.864,88.068c-2.264,0-4.264-1.041-5.617-2.646v52.639l11.412-6.588V85.209
			C84.308,86.938,82.228,88.068,79.864,88.068z"/>
		<path fill="#00A068" d="M129.92,61.448c-1.65,0-3.156-0.561-4.387-1.475l-4.842,2.74v48.532l10.172-5.873V61.354
			C130.551,61.394,130.244,61.448,129.92,61.448z"/>
	</g>
</g>
</svg>
