<svg width="61" height="69" viewBox="0 0 61 69" fill="none" xmlns="http://www.w3.org/2000/svg">
<g clip-path="url(#clip0_407_471)">
<path d="M13.7112 12.7887C13.7112 12.7887 13.8586 12.3426 12.3843 12.008C10.91 11.6734 8.10877 10.112 8.10877 10.112C8.10877 10.112 6.52388 8.03008 5.93415 7.62114C5.34442 7.21219 2.76436 4.49829 2.76436 4.49829C2.76436 4.49829 2.21149 4.83288 1.87977 5.01877C1.54805 5.20465 1.29004 5.05594 1.29004 5.05594C1.29004 5.05594 3.50152 11.0786 5.38128 12.2682C7.26104 13.4579 10.2834 14.4617 10.8731 15.2052C11.4628 15.9487 11.4628 16.5064 11.4628 16.5064C11.4628 16.5064 14.1166 14.3873 13.7112 12.7887Z" fill="#3A3A3A"/>
<path d="M2.72749 4.79589L2.76435 4.49847C2.76435 4.49847 2.35891 2.67682 2.24834 2.41658C2.13776 2.15634 1.91662 1.7474 1.91662 1.71022C1.91662 1.63587 1.80604 1.04104 1.76918 1.00386C1.73233 0.966686 1.62175 0.92951 1.51118 0.483389C1.36375 0.0372682 1.32689 -0.148615 1.17946 0.111622C1.03202 0.371859 1.06888 0.669273 1.17946 0.855156C1.29003 1.04104 1.36375 1.04104 1.36375 1.2641C1.36375 1.52434 1.36375 1.85893 1.36375 1.85893C1.36375 1.85893 0.516012 1.7474 0.36858 1.82175C0.221148 1.85893 0 2.45376 0 2.56529C0 2.67682 0.221148 2.89988 0.221148 2.89988C0.221148 2.89988 0.147432 2.82552 0.073716 2.97423C0 3.12294 0 3.42035 0.147432 3.56906C0.331722 3.71776 0.479154 3.90365 0.479154 4.16388C0.479154 4.42412 0.55287 4.72154 0.73716 4.83307C0.92145 4.9446 1.36375 5.20483 1.65861 5.20483C1.91662 5.20483 2.58006 5.46507 2.72749 4.79589Z" fill="#C7C7C7"/>
<path d="M10.9836 49.3708L9.10387 50.5977C9.10387 50.5977 6.2658 51.2297 5.97094 52.0476C5.67607 52.8655 6.89239 53.6462 7.88755 53.609C8.88272 53.5346 10.7993 52.2706 11.6102 52.0476C12.4211 51.8245 13.3057 51.8617 13.5268 51.4156C13.748 50.9323 13.3794 49.3708 13.3794 49.3708H10.9836Z" fill="#737373"/>
<path d="M11.0205 48.9619L9.14073 50.1887C9.14073 50.1887 6.30267 50.8207 6.0078 51.6386C5.71294 52.4565 6.92925 53.2372 7.92442 53.2001C8.91959 53.1257 10.8362 51.8617 11.6471 51.6386C12.458 51.4156 13.3425 51.4528 13.5637 51.0066C13.7848 50.5233 13.4163 48.9619 13.4163 48.9619H11.0205Z" fill="#202020"/>
<path d="M11.6839 25.6892C11.6839 25.6892 11.8314 24.165 10.8362 26.7673C9.84102 29.3697 9.10386 38.6267 9.58301 39.11C10.099 39.6305 10.4307 49.1477 10.4307 49.1477C10.4307 49.1477 11.5733 51.0437 13.3794 49.3336C14.1534 48.6272 14.1165 46.2479 14.1165 46.0992C14.1165 45.9133 15.1854 43.2366 14.4114 41.7867C13.6374 40.2997 15.0749 36.8051 15.0749 36.8051C15.0749 36.8051 15.296 28.6262 15.7383 27.957C16.1806 27.325 11.6839 25.6892 11.6839 25.6892Z" fill="#3A3A3A"/>
<path d="M21.5251 51.341C21.5251 51.341 21.4882 53.5716 21.1934 53.7574C20.8985 53.9433 20.2719 55.8765 20.7511 56.3598C21.2302 56.8431 22.0779 56.9175 22.852 56.4713C23.626 56.0252 24.2526 54.3894 24.142 53.3113C24.0314 52.2332 24.1051 51.1551 23.8471 50.7089C23.5891 50.3 22.594 50.0769 22.6308 50.0026C22.7045 49.9282 21.5251 51.341 21.5251 51.341Z" fill="#737373"/>
<path d="M21.4513 50.8948C21.4513 50.8948 21.4145 53.1254 21.1196 53.3112C20.8248 53.4971 20.1982 55.4303 20.6773 55.9136C21.1565 56.3969 22.0042 56.4713 22.7782 56.0252C23.5523 55.579 24.1788 53.9433 24.0683 52.8651C23.9577 51.787 24.0314 50.7089 23.7734 50.2628C23.5154 49.8538 22.5202 49.6308 22.5571 49.5564C22.6677 49.5192 21.4513 50.8948 21.4513 50.8948Z" fill="#202020"/>
<path d="M13.5269 27.8453C13.5269 27.8453 15.9226 41.8609 16.4018 42.5301C16.8809 43.1993 18.2078 43.7941 19.1293 45.3556C20.6405 47.9951 20.7879 50.7462 21.8199 51.0808C22.8519 51.4154 22.7782 51.3038 23.2205 50.5975C23.6997 49.9283 23.0731 44.9094 22.8519 43.7941C22.6308 42.6788 20.3824 41.4892 20.4193 40.82C20.4562 40.188 20.7142 31.154 19.2767 28.6632C18.5764 27.4735 14.1534 25.8378 13.5269 27.8453Z" fill="#474747"/>
<path d="M20.5668 22.1202C20.7879 21.0793 22.0411 18.5141 21.0459 17.2501C20.4193 16.4694 19.203 15.8746 18.3553 15.5028C18.3922 15.5771 18.429 15.6143 18.429 15.6887C18.5027 16.1348 18.2816 17.1757 18.0236 17.3245C17.7656 17.5103 17.397 17.6962 17.397 17.6962L16.7704 17.3245L16.8441 17.8449L14.5221 17.3988C14.5221 17.3988 14.4483 17.3988 14.3746 17.3616H14.3378C14.1903 17.3245 13.9692 17.2129 13.8218 16.9155C13.5638 16.4694 13.4532 16.2463 13.4532 16.2463L13.8586 16.0604C13.8586 16.0604 13.4163 15.0567 13.8218 14.4247C13.5638 14.4247 13.6006 13.1607 13.3795 13.3465C12.5686 14.2016 10.9468 16.5437 10.7625 17.3616C10.4308 19.0346 10.394 22.8638 10.4308 23.1612C10.4677 23.4214 10.5045 27.4737 10.5045 27.4737C10.5045 27.4737 12.4212 29.853 15.0381 30.0761C17.655 30.2991 19.2399 28.6262 19.2399 28.6262C19.2399 28.6262 19.8296 27.6596 19.8296 26.9532C19.8665 24.8713 20.3825 23.1612 20.5668 22.1202Z" fill="#ADADAD"/>
<path d="M14.0798 16.3207C14.043 16.6553 14.4853 17.3616 14.5221 17.436C14.8907 17.436 15.8121 17.3988 16.365 16.9899C17.0653 16.5066 17.4339 15.6515 17.5445 15.3541C17.5445 15.3169 17.5813 15.2798 17.5813 15.2426C17.4339 15.2054 17.3602 15.1682 17.3602 15.1682L15.591 15.4285C15.591 15.4285 15.2224 15.0567 14.7064 14.7593L14.6327 15.4285C14.5958 15.4285 14.1167 15.8746 14.0798 16.3207Z" fill="#7C7C7C"/>
<path d="M13.8954 16.1349L13.49 16.3208C13.49 16.3208 13.6006 16.5438 13.8586 16.9899C14.0429 17.2502 14.264 17.3617 14.4114 17.4361C14.4483 17.4361 14.4852 17.4361 14.5589 17.4361C14.522 17.3617 14.3009 16.3208 14.3377 15.9862C14.3746 15.5772 14.6326 15.4657 14.6326 15.4657L14.7432 14.3504C14.7432 14.3504 14.3009 13.8671 13.8586 14.5363C13.4531 15.1311 13.8954 16.1349 13.8954 16.1349Z" fill="#626262"/>
<path d="M14.5589 17.4361L14.4115 17.3989C14.4852 17.4361 14.5589 17.4361 14.5589 17.4361Z" fill="#626262"/>
<path d="M16.365 16.9898C15.8121 17.3616 14.9275 17.4359 14.5221 17.4359C14.4484 17.4359 14.3746 17.4359 14.3746 17.4359L14.5221 17.4731L16.8441 17.9192L16.7704 17.3988L17.397 17.7705C17.397 17.7705 17.7656 17.5475 18.0236 17.3988C18.2816 17.2129 18.5027 16.2091 18.429 15.763C18.429 15.6886 18.3922 15.6515 18.3553 15.5771C18.1341 15.1682 17.5076 14.7964 17.5076 14.7964C17.5076 14.7964 17.6181 15.0194 17.5813 15.2797C17.5813 15.3169 17.5813 15.354 17.5444 15.3912C17.4338 15.6515 17.0653 16.5065 16.365 16.9898Z" fill="#626262"/>
<path d="M13.7112 14.3502C13.7112 14.3502 13.9692 15.3912 14.4115 16.1347C14.4483 16.2091 14.4852 16.2834 14.5221 16.3578C14.8538 16.9526 15.6278 17.1757 16.2175 16.8411C16.5861 16.618 16.9547 16.395 17.1758 16.2091C17.7287 15.7258 17.8024 15.6514 17.8024 15.5771C17.8024 15.4656 17.8024 15.3168 17.8024 15.3168C17.8024 15.3168 17.2127 14.3874 17.139 14.3874C17.0653 14.3502 15.7384 13.458 15.7384 13.458L13.7112 14.3502Z" fill="#C7C7C7"/>
<path d="M14.4483 11.153C14.3746 11.153 14.1903 9.88904 14.1903 9.88904C14.1903 9.88904 15.0749 8.43915 16.4018 9.10833C17.7287 9.77751 19.0924 11.9338 18.9081 12.6401C18.7238 13.3465 17.8761 14.0157 17.6181 14.2015C17.3601 14.3874 17.5075 14.9079 17.5075 14.9079C17.5075 14.9079 16.5124 14.5361 16.2175 14.0157C15.9595 13.4952 14.4483 11.153 14.4483 11.153Z" fill="#202020"/>
<path d="M14.1903 9.88892C14.1166 9.88892 13.8586 10.1863 13.8217 10.4466C13.7849 10.6696 13.748 10.7812 13.748 10.7812C13.748 10.7812 13.1952 11.1157 13.0477 11.2273C12.9003 11.3016 12.458 11.4875 12.6791 11.7106C12.9003 11.8965 12.9003 11.8965 12.9003 11.8965C12.9003 11.8965 12.8634 12.008 12.8266 12.1939C12.7897 12.3798 12.9003 12.4913 12.9003 12.4913C12.9003 12.4913 12.6791 12.4169 12.6791 12.5656C12.6791 12.7143 12.6423 12.8259 12.6423 12.8259C12.6423 12.8259 12.2737 13.0489 12.4949 13.4207C12.5686 13.5694 12.7529 13.7553 13.0109 13.904C13.3794 14.1271 13.8217 14.3501 14.264 14.4617C14.4115 14.4988 14.5589 14.4988 14.7063 14.4988C15.3329 14.4617 15.9964 14.1271 15.9964 14.1271C15.9964 14.1271 16.7335 14.3501 16.9915 14.2014C17.2495 14.0527 17.655 13.6809 17.5075 13.4207C17.397 13.1976 16.9547 13.0118 16.9547 13.0118C16.9547 13.0118 15.7752 13.272 15.6278 13.1605C15.4804 13.0489 17.0652 11.7849 16.4387 10.9299C15.8121 10.0748 14.1903 9.88892 14.1903 9.88892Z" fill="#E0E0E0"/>
<path d="M14.4852 9.29432C14.4852 9.29432 12.7528 8.92255 13.0477 9.18279C13.3057 9.44303 14.4852 10.707 15.0749 11.0044C15.6646 11.3019 16.9178 12.2685 16.9178 12.2685C16.9178 12.2685 18.8713 14.3132 19.3136 14.276C19.7559 14.2388 19.5716 12.0454 17.9867 11.2647C16.3649 10.4468 14.4852 9.29432 14.4852 9.29432Z" fill="#6B6B6B"/>
<path d="M18.945 9.03398C18.945 9.03398 17.6919 8.06738 16.5493 8.06738C15.4067 8.10456 14.4852 9.25704 14.4852 9.25704C14.4852 9.25704 16.881 10.93 17.655 11.7107C18.429 12.5286 18.687 13.0119 19.1293 12.7888C19.5716 12.6401 20.6405 10.5582 18.945 9.03398Z" fill="#7C7C7C"/>
<path d="M19.0187 18.6998C19.0187 18.6998 18.2078 20.3728 19.0187 21.9714C19.8296 23.57 20.5299 26.2839 20.5299 26.2839C20.5299 26.2839 19.5716 33.3103 19.4979 33.4218C19.4242 33.5333 20.8616 33.682 20.8248 34.3884C20.7879 35.0576 23.5891 28.3658 23.2574 26.321C22.9257 24.3507 22.8888 18.5139 21.4513 17.473C19.977 16.3577 19.0187 18.6998 19.0187 18.6998Z" fill="#3A3A3A"/>
<path d="M20.53 33.4592C20.53 33.4592 19.7928 33.1989 19.4979 33.3848C19.2031 33.5335 18.6502 34.2027 18.6502 34.2027L17.9868 35.6526C17.9868 35.6526 18.0236 36.1359 17.9868 36.2846C17.9499 36.3961 18.2079 36.8422 18.2079 37.0281C18.2079 37.214 18.3922 37.3627 18.5765 37.214C18.7608 37.1025 18.7608 36.7307 18.6502 36.582C18.5396 36.4333 18.6133 35.6898 18.9082 35.5782C19.2399 35.4667 19.2399 35.8385 19.2399 35.8385V37.3999L18.9082 37.623C18.9082 37.623 18.5028 37.846 18.3553 37.9575C18.2079 38.0319 18.1342 38.4408 18.4659 38.3665C18.7608 38.3293 19.0188 38.3293 19.0188 38.3293L19.7928 37.7345C19.7928 37.7345 20.1614 37.1397 20.3088 37.1025C20.4562 37.0653 20.5668 36.7307 20.7511 36.5077C20.9354 36.2846 20.9354 35.6154 20.9354 35.318C20.9354 35.0578 21.046 33.7938 20.53 33.4592Z" fill="#C7C7C7"/>
<path d="M10.5414 27.0647C10.5414 27.0647 11.0942 28.7005 13.4532 29.2209C15.8121 29.7414 16.9178 29.3697 17.5444 29.1838C18.2447 28.9979 19.4979 28.3659 19.4979 28.3659V29.0351C19.4979 29.0351 18.3184 30.5221 14.0797 30.1132C11.2785 29.853 10.5045 28.1056 10.5045 28.1056L10.5414 27.0647Z" fill="#202020"/>
<path d="M12.4949 28.9979L12.458 29.7786C12.458 29.8901 12.5317 30.0017 12.6423 30.0388C12.9003 30.1132 13.3426 30.2247 13.4532 30.2247C13.6006 30.2247 13.5269 30.1132 13.5269 30.1132L12.9372 29.9273C12.8266 29.8901 12.7529 29.7786 12.7529 29.6671V29.2953C12.7529 29.1838 12.8634 29.0722 12.974 29.1094C13.232 29.1838 13.5637 29.2581 13.5637 29.2581C13.5269 29.2581 13.7112 29.0351 13.4163 28.9607C13.232 28.9235 12.9372 28.8492 12.716 28.812C12.6054 28.812 12.4949 28.8864 12.4949 28.9979Z" fill="#6E6E6E"/>
<path d="M12.3474 29.2581L12.974 29.5183V29.6298L12.3474 29.3696V29.2581Z" fill="#848484"/>
<path d="M14.5221 17.3616C14.5221 17.3616 13.3795 19.8524 13.0109 21.86C12.6054 23.8675 12.9003 28.8492 12.9003 28.8492L13.2689 28.9235C13.2689 28.9235 12.974 23.5701 13.8217 21.3767C14.4483 19.7781 15.0749 17.5475 15.0749 17.5475L14.7063 17.6962L14.5221 17.3616Z" fill="#626262"/>
<path d="M12.458 20.5215C12.0894 20.4471 11.6103 20.2613 11.2417 20.1125C10.9468 19.7408 10.7994 19.4805 10.652 18.9229C10.6888 18.5883 10.7626 18.2909 10.7994 17.9563C11.426 18.6998 12.0894 19.2575 12.7529 19.6293C12.716 19.9267 12.4949 20.2241 12.458 20.5215Z" fill="#626262"/>
<path d="M17.139 23.5702C16.7704 23.533 16.4018 23.4958 16.0332 23.3843C15.6647 23.0869 15.2961 22.7151 14.9275 22.3434C14.9275 22.0088 15.0012 21.5998 15.1486 21.3396C15.8858 21.9716 16.623 22.4177 17.3233 22.6408C17.3601 22.9754 17.139 23.2728 17.139 23.5702Z" fill="#626262"/>
<path d="M37.8532 14.8708L38.0006 13.2722C38.0006 13.2722 37.0792 12.5658 38.2218 12.1941C39.3644 11.8223 39.9541 11.4133 41.8339 12.1941C43.7136 12.9748 43.8979 15.2054 43.1239 16.3578C42.3499 17.5103 41.6127 18.2167 41.6127 18.2167C41.6127 18.2167 41.6127 17.2501 41.0599 17.2129C40.507 17.1386 41.023 18.068 39.9541 16.7296C38.8852 15.4284 37.8532 14.8708 37.8532 14.8708Z" fill="#030303"/>
<path d="M35.9734 21.228C35.7891 21.228 34.4622 21.7113 32.9879 22.492C31.5136 23.2727 30.0024 23.4586 30.0024 23.4586C30.0024 23.4586 28.7492 23.7188 27.1643 24.2393C25.5057 24.797 25.2846 24.6111 25.2846 24.6111C25.2846 24.6111 23.9946 24.9828 23.4048 24.6111C22.8151 24.2393 22.5571 24.0162 22.3359 24.165C22.1517 24.3137 22.0411 24.0906 22.0411 24.0906C22.0411 24.0906 22.2622 24.4252 22.0411 24.4624C21.8199 24.4995 21.6725 24.4252 21.6725 24.4252C21.6725 24.4252 21.3039 24.2021 21.3039 23.9791C21.3039 23.756 21.4145 23.6817 21.4145 23.6817C21.4145 23.6817 21.1565 23.6817 21.3039 23.4214C21.4514 23.1612 21.4514 23.1612 21.4514 23.1612C21.4514 23.1612 21.3039 22.7522 21.4145 22.5664C21.5251 22.3805 22.4097 22.2689 22.4097 22.2689C22.4097 22.2689 20.493 21.6369 20.4562 21.3023C20.4193 20.9678 23.0731 21.6369 23.2205 21.6741C23.368 21.7485 25.2477 22.7894 25.2477 22.7894C25.2477 22.7894 26.5378 22.5664 27.4961 21.8972C28.4544 21.1908 29.4495 21.228 29.4495 21.228C29.4495 21.228 32.435 20.1499 32.8036 19.5179C33.1722 18.8859 33.9831 17.8077 34.9045 17.6962C35.7891 17.6218 35.9734 21.228 35.9734 21.228Z" fill="#C7C7C7"/>
<path d="M35.826 17.9192C35.6786 17.8448 35.1626 17.3987 34.0937 17.9192C33.0248 18.4396 32.8036 19.3691 32.5088 19.6293C32.2139 19.8895 30.113 20.8561 30.113 20.8561L29.9656 21.0048C29.9656 21.0048 31.145 20.8189 31.3293 21.9714C31.5136 23.1239 30.7765 23.3098 30.7765 23.3098C30.7765 23.3098 32.8405 23.0495 34.278 22.5662C35.7154 22.083 35.9734 21.5625 36.2314 20.6331C36.4894 19.7408 35.826 17.9192 35.826 17.9192Z" fill="#444444"/>
<path d="M38.0005 53.4975C38.0005 53.4975 36.6368 54.9474 35.7522 55.0589C34.8676 55.1333 34.4622 55.3935 33.8356 55.9512C33.209 56.5088 33.3933 57.0293 35.1256 57.1408C36.858 57.2524 36.858 56.4345 38.1848 56.3601C39.5117 56.2858 39.3274 56.5832 39.7697 56.1371C39.8435 56.0627 39.9172 55.914 39.9172 55.7281C40.0646 54.9102 39.7697 53.386 39.7697 53.386L38.0005 53.4975Z" fill="#DBDBDB"/>
<path d="M38.0005 53.1257C38.0005 53.1257 36.6368 54.5756 35.7522 54.6871C34.8676 54.7615 34.4622 55.0217 33.8356 55.5794C33.209 56.137 33.3933 56.6575 35.1256 56.769C36.858 56.8805 36.858 56.0627 38.1848 55.9883C39.5117 55.9139 39.3274 56.2114 39.7697 55.7652C39.8435 55.6909 39.9172 55.5422 39.9172 55.3563C40.0646 54.5384 39.7697 53.0142 39.7697 53.0142L38.0005 53.1257Z" fill="#202020"/>
<path d="M40.1015 54.6499C40.1015 54.6499 39.3644 54.7614 39.5487 55.3934C39.7329 56.0254 39.5855 57.1779 39.3275 57.9215C39.0695 58.665 38.8483 60.0033 39.2538 60.3751C39.6592 60.7469 41.3547 60.4123 41.6127 59.7803C41.9076 59.1855 42.0181 57.8843 41.9076 57.3266C41.7601 56.769 41.5021 54.9473 41.3178 54.8358C41.1704 54.6871 40.1015 54.6499 40.1015 54.6499Z" fill="#DBDBDB"/>
<path d="M40.1015 54.3152C40.1015 54.3152 39.3644 54.4267 39.5487 55.0587C39.7329 55.6907 39.5855 56.8432 39.3275 57.5867C39.0695 58.3303 38.8483 59.6686 39.2538 60.0404C39.6592 60.4122 41.3547 60.0776 41.6127 59.4456C41.9076 58.8507 42.0181 57.5496 41.9076 56.9919C41.7601 56.4343 41.5021 54.6126 41.3178 54.5011C41.1704 54.3524 40.1015 54.3152 40.1015 54.3152Z" fill="#202020"/>
<path d="M36.1945 29.1094C36.1945 29.1094 35.6417 34.2026 35.7154 37.0652C35.8628 42.6417 36.084 43.4224 36.4525 45.2069C36.8211 46.9914 37.6689 53.3114 37.6689 53.4973C37.6689 53.6832 37.7426 54.3524 38.8115 54.055C39.8803 53.7575 40.4701 52.7909 40.4701 52.7909C40.4701 52.7909 41.0229 46.917 40.0278 45.1697C39.0326 43.4224 38.9957 43.1622 39.0695 42.9391C39.1432 42.7161 40.3226 36.7678 40.0646 33.1988C39.8066 29.6298 36.1945 29.1094 36.1945 29.1094Z" fill="#3A3A3A"/>
<path d="M37.89 33.1988C37.89 33.1988 39.18 43.9057 39.4381 45.8761C39.6592 47.8464 39.4381 55.6907 39.4381 55.6907C39.4381 55.6907 39.6223 56.5086 40.6544 56.2112C41.6864 55.9138 41.6864 55.0959 41.6864 55.0959C41.6864 55.0959 43.2713 49.6681 42.9027 47.8093C42.5341 45.9504 42.2393 45.3928 42.4236 44.5005C42.6078 43.6083 44.5245 37.028 44.0822 34.1282C43.603 31.2284 42.6816 28.8491 42.6816 28.8491H38.2955C38.2586 28.8863 37.5214 30.3734 37.89 33.1988Z" fill="#474747"/>
<path d="M34.4991 21.2279C34.4991 21.2279 35.1994 24.7597 35.3837 26.1353C35.5311 27.5108 35.7522 31.972 35.7522 31.972C35.7522 31.972 37.116 33.0873 40.0646 33.1988C43.0133 33.3104 43.5661 31.8233 43.5661 31.8233C43.5661 31.8233 42.7921 29.7414 43.1607 28.4774C43.5661 27.2134 44.0453 25.3545 44.5244 24.2392C45.0036 23.1239 45.5933 21.3023 42.7184 19.5178C39.8435 17.6961 35.568 17.3244 34.7571 17.7705C33.9093 18.2166 34.4991 21.2279 34.4991 21.2279Z" fill="#ADADAD"/>
<path d="M41.6127 18.2168C41.6127 18.2168 38.8115 16.9528 38.0006 18.4027C36.8581 20.4474 37.6321 21.3396 37.6321 21.3396L38.7747 20.5218L39.2538 22.1575C39.2538 22.1575 42.2393 22.0088 42.4605 19.8526C42.6079 18.6629 41.6127 18.2168 41.6127 18.2168Z" fill="#444444"/>
<path d="M27.533 28.7749L32.9142 31.8978L37.3003 33.1246L37.7058 32.6041L33.4302 31.3029L27.8647 28.366L27.533 28.7749Z" fill="#4B4B4B"/>
<path d="M29.1547 29.1095L27.8646 28.366L33.7619 30.3363L38.2586 32.9759L33.1722 31.4888L29.1547 29.1095Z" fill="#686868"/>
<path d="M33.209 31.3028L28.4912 28.7004L33.6882 30.4477L37.5214 32.6412L33.209 31.3028Z" fill="#757575"/>
<path d="M43.1607 22.7894C43.1607 22.7894 42.2392 23.9047 43.4555 25.6891C44.6718 27.4736 44.893 29.1466 44.893 29.1466L41.2072 31.0798L39.4012 32.1207C39.4012 32.1207 39.2169 31.3028 38.4797 31.2285C37.7425 31.1541 36.9317 30.9682 36.9317 30.9682C36.9317 30.9682 36.4525 31.0798 36.1945 31.0426C35.9365 31.0054 36.0839 31.3028 36.1945 31.5259C36.3051 31.7118 36.9317 31.6002 36.9685 31.6002C37.0054 31.6002 37.7794 32.0464 37.7794 32.0464L37.0422 32.4925L35.7522 32.7527C35.7522 32.7527 35.1625 32.0464 34.8308 32.2694C34.499 32.4925 35.015 32.6412 35.1256 32.7527C35.1993 32.9014 35.3468 33.1988 35.4573 33.236C35.5679 33.2732 36.2682 33.4219 36.2682 33.4219C36.2682 33.4219 36.8579 33.7565 36.8948 33.7937C36.9317 33.8308 38.2586 34.0539 38.5166 34.0167C38.7746 33.9795 39.0326 33.5706 40.0646 33.4219C41.1335 33.236 46.1462 31.5631 46.8833 30.5965C47.6205 29.6299 46.9202 27.2134 46.7359 26.3211C46.5516 25.4289 46.3673 22.9009 45.7039 22.0458C45.0404 21.2279 43.4924 22.083 43.1607 22.7894Z" fill="#C7C7C7"/>
<path d="M38.6272 18.3654C38.6272 18.3654 38.7009 19.5551 38.7746 20.2243C38.8483 20.8563 40.2858 20.5217 40.9493 20.0384C41.0967 19.9269 41.2073 19.8153 41.3178 19.741C41.6127 19.4807 41.7233 19.0718 41.6496 18.7C41.6127 18.5885 41.6127 18.4398 41.6127 18.2539C41.6127 17.5104 41.8338 16.7668 41.8338 16.7668L38.6272 18.3654Z" fill="#C7C7C7"/>
<path d="M38.0005 13.2722C38.0005 13.2722 37.3002 14.5734 37.4108 15.0195C37.5582 15.5028 37.3002 15.6887 37.2634 15.9861C37.2265 16.2835 37.3371 17.3245 37.3371 17.5847C37.3371 17.845 37.3371 18.2911 37.5951 18.5513C37.8531 18.8115 38.0743 18.8115 38.4428 18.8115C38.8114 18.8115 39.8434 18.5513 40.1752 18.3654C40.5069 18.1424 40.9123 17.436 40.9123 17.436C40.9123 17.436 41.2072 17.6962 41.5021 17.5104C41.7969 17.3245 42.4972 16.9527 42.2392 16.3951C41.9812 15.8374 41.7969 15.8002 41.4283 15.9861C41.0598 16.172 40.6543 16.5438 40.6543 16.2464C40.6543 15.9489 40.986 15.1311 40.6175 14.6849C40.212 14.2388 40.1383 14.8336 39.2169 14.4247C38.3691 14.0901 38.0005 13.2722 38.0005 13.2722Z" fill="#E0E0E0"/>
<path d="M43.1239 21.005C43.1239 21.005 43.4187 20.4845 43.861 20.4101C44.3033 20.3358 46.1831 21.2652 46.4042 23.3471C46.6254 25.429 46.9939 27.3622 46.9939 27.3622C46.9939 27.3622 47.1045 28.1801 45.8513 28.7377C44.5982 29.2954 44.4876 28.8864 44.4876 28.8864C44.4876 28.8864 44.2665 28.5518 43.9716 27.9942C43.345 26.9161 42.3867 25.0572 42.3867 23.7932C42.313 21.9716 43.1239 21.005 43.1239 21.005Z" fill="#444444"/>
<path d="M44.1191 29.1095C44.2297 29.4441 45.446 30.0018 46.4043 29.2582C47.3626 28.5519 47.2152 27.6225 47.1414 27.2879C47.0677 26.9533 46.8466 26.7302 46.8466 26.7302C46.8466 26.7302 46.6254 28.0314 45.5934 28.2173C44.5614 28.366 43.8242 27.8455 43.8242 27.8455C43.8242 27.8455 44.0085 28.7749 44.1191 29.1095Z" fill="#3A3A3A"/>
<path d="M21.5619 28.7006C21.5619 28.7006 19.6453 28.6634 18.5027 27.511L17.9867 26.6559C18.2816 26.5072 20.1245 26.3957 20.1245 26.3957C20.5668 26.3585 20.8616 26.4328 21.0828 26.5444C21.9674 27.1392 21.5619 28.7006 21.5619 28.7006Z" fill="#DBDBDB"/>
<path d="M21.6357 28.7006L21.1196 28.998L9.3988 22.1947L9.91482 21.8601L21.6357 28.7006Z" fill="#959595"/>
<path d="M21.1196 28.9979L29.3021 46.0992L17.5813 39.2959L9.3988 22.1946L21.1196 28.9979Z" fill="#6E6E6E"/>
<path d="M21.6356 28.7007L29.855 45.802L29.3021 46.0994L21.1196 28.9981L21.6356 28.7007Z" fill="#959595"/>
<path d="M18.3184 32.9758C18.3184 33.0502 18.3553 33.1245 18.4658 33.1989C18.6501 33.3104 18.9819 33.3104 19.203 33.1989C19.3136 33.1245 19.3504 33.0502 19.3504 32.9758L19.0187 57.8099C19.0187 57.8842 18.9819 57.9586 18.8713 58.0329C18.687 58.1445 18.3553 58.1445 18.1341 58.0329C18.0236 57.9586 17.9867 57.8842 17.9867 57.8099L18.3184 32.9758Z" fill="#828282"/>
<path d="M18.3184 32.9758C18.3184 33.0502 18.3553 33.1245 18.4659 33.1989C18.6502 33.3104 18.9819 33.3104 19.203 33.1989C19.3136 33.1245 19.3505 33.0502 19.3505 32.9758L14.1903 66.3605C14.1903 66.4349 14.1535 66.5092 14.0429 66.5836C13.8586 66.6951 13.5269 66.6951 13.3058 66.5836C13.1952 66.5092 13.1583 66.4349 13.1583 66.3605L18.3184 32.9758Z" fill="#959595"/>
<path d="M18.3185 32.9759C18.3185 33.0502 18.3185 32.7156 18.5028 32.2324C18.5765 32.0093 18.8714 31.8606 19.0925 32.3067C19.1294 32.4182 19.3505 33.0502 19.3505 32.9759L28.6019 63.3864C28.6019 63.4608 28.565 63.5352 28.4544 63.6095C28.2701 63.721 27.9384 63.721 27.7173 63.6095C27.6067 63.5352 27.5698 63.4608 27.5698 63.3864L18.3185 32.9759Z" fill="#959595"/>
<path d="M16.9915 24.2023C15.7384 23.2357 13.9692 22.3807 12.6054 22.232C10.91 22.0461 8.44048 22.4178 7.51903 26.024C4.71782 37.1026 7.88761 38.5154 7.88761 38.5154L18.0973 45.7648C18.0973 45.7648 15.7015 38.85 16.7704 32.7158C17.5076 28.4033 18.8713 27.0278 19.6453 26.5816C19.6453 26.5816 19.6822 26.5816 19.6822 26.5445C19.977 26.3958 20.1613 26.3586 20.1613 26.3586C20.6036 26.3214 20.8985 26.3958 21.1196 26.5073V26.4701L16.9915 24.2023Z" fill="#F2F2F2"/>
<path d="M19.6821 26.6559L19.6084 26.6187C19.6084 26.6187 19.6453 26.6187 19.6453 26.5815L19.6821 26.6559Z" fill="#959595"/>
<path d="M50.3481 60.8211L48.6526 62.3082C48.6526 62.3082 46.6622 63.2004 46.5148 64.0555C46.3305 64.9106 47.6943 65.5054 48.6526 65.2823C49.6109 65.0593 50.6061 63.6837 51.3801 63.312C52.1541 62.9774 53.0387 62.8658 53.1861 62.3825C53.3335 61.8621 52.707 60.375 52.707 60.375L50.3481 60.8211Z" fill="#737373"/>
<path d="M50.3481 60.3006L48.6526 61.7877C48.6526 61.7877 46.6622 62.6799 46.5148 63.535C46.3305 64.3901 47.6943 64.9849 48.6526 64.7618C49.6109 64.5388 50.6061 63.1632 51.3801 62.7915C52.1541 62.4569 53.0387 62.3453 53.1861 61.862C53.3335 61.3416 52.707 59.8545 52.707 59.8545L50.3481 60.3006Z" fill="#202020"/>
<path d="M49.5372 36.9536C49.5372 36.9536 49.6846 35.4294 48.6895 38.0317C47.6943 40.6341 46.1463 49.1848 46.6254 49.7052C47.1414 50.2257 49.4635 58.1815 49.7952 59.1109C50.1269 60.0404 50.1269 60.4493 50.1269 60.4493C50.1269 60.4493 51.5275 61.3787 52.3384 60.7095C53.1493 60.0404 53.1493 59.3712 53.1493 59.2225C53.1493 59.0366 53.1124 53.9062 52.3384 52.4563C51.5644 51.0064 50.9378 49.7796 50.9378 49.7796C50.9378 49.7796 53.1493 39.9649 53.5916 39.2957C54.0707 38.6266 49.5372 36.9536 49.5372 36.9536Z" fill="#3A3A3A"/>
<path d="M54.1445 62.5313C54.1445 62.5313 53.8496 64.7619 53.5179 64.8734C53.1862 64.9849 52.3385 66.8438 52.7439 67.4014C53.1862 67.9591 53.9971 68.1078 54.8448 67.7732C55.6925 67.4386 56.5034 65.8772 56.5403 64.8362C56.5771 63.7581 56.7614 62.68 56.5771 62.2339C56.3928 61.7877 55.4345 61.4531 55.4714 61.3788C55.5083 61.2673 54.1445 62.5313 54.1445 62.5313Z" fill="#737373"/>
<path d="M54.1445 62.0852C54.1445 62.0852 53.8496 64.3158 53.5179 64.4273C53.1862 64.5388 52.3385 66.3977 52.7439 66.9553C53.1862 67.513 53.9971 67.6617 54.8448 67.3271C55.6925 66.9925 56.5034 65.4311 56.5403 64.3901C56.5771 63.312 56.7614 62.2339 56.5771 61.7878C56.3928 61.3416 55.4345 61.007 55.4714 60.9327C55.5083 60.8583 54.1445 62.0852 54.1445 62.0852Z" fill="#202020"/>
<path d="M51.417 39.1471C51.417 39.1471 52.0436 52.159 52.5227 52.8282C53.0019 53.4973 53.8865 57.5124 53.9971 59.3341C54.1076 61.1186 53.7022 62.68 54.7342 63.0146C55.7662 63.3492 56.0611 63.0146 56.5034 62.3454C56.9826 61.6762 57.904 56.8804 57.6829 55.7651C57.4617 54.6498 56.7614 53.3115 56.7983 52.6795C56.8351 52.0474 58.3094 41.8982 57.7197 40.597C57.13 39.2215 52.0067 37.1396 51.417 39.1471Z" fill="#474747"/>
<path d="M51.1221 26.3583L51.3801 25.8378C51.3801 25.8378 49.6846 25.5404 49.1317 27.139C48.5789 28.7376 48.5052 30.0016 48.3577 30.6336C48.1734 31.2656 47.5469 32.827 47.5469 32.827C47.5469 32.827 46.9571 33.0873 46.2937 33.9795C45.6302 34.8717 44.3033 37.251 44.3033 37.251C44.3033 37.251 45.3354 37.8459 45.4091 37.883C45.4828 37.9202 45.0405 38.5894 46.0357 38.3292C47.0677 38.0689 49.2423 36.6934 49.9795 34.2026C50.7166 31.7117 51.1221 26.3583 51.1221 26.3583Z" fill="#3A3A3A"/>
<path d="M58.4568 33.3848C58.678 32.3438 59.9311 29.7786 58.936 28.5146C58.3094 27.7339 57.0931 27.1391 56.2453 26.7673C56.2822 26.8417 56.319 26.8789 56.319 26.9532C56.3928 27.3993 56.1716 28.4403 55.9136 28.589C55.6556 28.7749 55.287 28.9608 55.287 28.9608L54.6604 28.589L54.7341 29.1095L52.4121 28.6633C52.4121 28.6633 52.3384 28.6633 52.2647 28.6262H52.2278C52.0804 28.589 51.8592 28.4775 51.7118 28.1801C51.4538 27.7339 51.3432 27.5109 51.3432 27.5109L51.7486 27.325C51.7486 27.325 51.3064 26.3212 51.7118 25.6892C51.4538 25.6892 51.1958 25.7264 51.0115 25.9494C50.2006 26.8045 48.5789 30.7081 48.6526 31.526C48.7263 32.3438 49.316 34.8347 49.316 35.1321C49.3529 35.3923 49.0212 37.1768 49.0212 37.1768C49.0212 37.1768 50.0532 39.6677 52.6332 39.8535C55.2502 40.0766 57.0931 38.8126 57.0931 38.8126C57.0931 38.8126 56.7613 37.846 56.8719 37.1396C57.0193 36.5448 58.2357 34.4257 58.4568 33.3848Z" fill="#ADADAD"/>
<path d="M52.2647 28.6262C52.2647 28.6262 51.1221 31.1171 50.7535 33.0874C50.3481 35.095 50.5692 40.7087 50.5692 40.7087L51.1958 40.9317C51.1958 40.9317 50.4218 34.6117 51.2695 32.3811C51.8961 30.7825 52.6333 28.6634 52.6333 28.6634H52.449L52.2647 28.6262Z" fill="#626262"/>
<path d="M50.5692 32.4926C50.2006 32.4182 49.7215 32.2323 49.3529 32.0836C49.058 31.7118 48.9106 31.4516 48.7632 30.894C48.8 30.5594 49.0212 30.3363 49.058 30.0017C49.6846 30.7452 50.2006 31.2285 50.8641 31.6003C50.8272 31.9349 50.6061 32.1951 50.5692 32.4926Z" fill="#626262"/>
<path d="M54.1813 34.6488C53.8127 34.6116 53.4442 34.5745 53.0756 34.4629C52.707 34.1655 52.3384 33.7938 51.9698 33.422C51.9698 33.0874 52.0436 32.6784 52.191 32.4182C52.9282 33.0502 53.6653 33.4963 54.3656 33.7194C54.4025 34.054 54.1813 34.3514 54.1813 34.6488Z" fill="#626262"/>
<path d="M51.9698 27.5851C51.933 27.9197 52.3753 28.6261 52.4121 28.7004C52.7807 28.7004 53.7022 28.6632 54.255 28.2543C54.9553 27.771 55.3239 26.9159 55.4345 26.6185C55.4345 26.5813 55.4713 26.5442 55.4713 26.507C55.3239 26.4698 55.2502 26.4326 55.2502 26.4326L53.481 26.6929C53.481 26.6929 53.1124 26.3211 52.5964 26.0237L52.5227 26.6929C52.4858 26.73 52.0067 27.1762 51.9698 27.5851Z" fill="#7C7C7C"/>
<path d="M51.7487 27.3993L51.3433 27.5852C51.3433 27.5852 51.4538 27.8082 51.7118 28.2543C51.8961 28.5146 52.1173 28.6261 52.2647 28.7005C52.3016 28.7005 52.3384 28.7005 52.4121 28.7005C52.3753 28.6261 52.1541 27.5852 52.191 27.2506C52.2279 26.8416 52.4859 26.7301 52.4859 26.7301L52.5964 25.6148C52.5964 25.6148 52.1541 25.1315 51.7118 25.8007C51.3064 26.3955 51.7487 27.3993 51.7487 27.3993Z" fill="#626262"/>
<path d="M52.4121 28.7376L52.2646 28.7004C52.3384 28.7376 52.4121 28.7376 52.4121 28.7376Z" fill="#626262"/>
<path d="M49.2055 36.5076C49.2055 36.5076 48.9106 37.8088 51.2695 38.3292C53.6285 38.8497 54.7342 38.701 55.3608 38.5523C56.0611 38.3664 56.9088 37.5485 56.9088 37.5485L57.0194 38.3292C57.0194 38.3292 57.0194 39.965 52.8176 39.5561C50.0164 39.2958 48.8738 37.5485 48.8738 37.5485L49.2055 36.5076Z" fill="#202020"/>
<path d="M50.3113 38.106L50.2744 38.8868C50.2744 38.9983 50.3481 39.1098 50.4587 39.147C50.7167 39.2214 51.159 39.3329 51.2696 39.3329C51.417 39.3329 51.3433 39.2214 51.3433 39.2214L50.7536 39.0355C50.643 38.9983 50.5693 38.8868 50.5693 38.7752V38.4035C50.5693 38.2919 50.6799 38.1804 50.7904 38.2176C51.0484 38.2919 51.3802 38.3663 51.3802 38.3663C51.3433 38.3663 51.5276 38.1432 51.2327 38.0689C51.0484 38.0317 50.7536 37.9573 50.5324 37.9202C50.4219 37.9202 50.3113 37.9945 50.3113 38.106Z" fill="#6E6E6E"/>
<path d="M50.1638 38.3665L50.7904 38.6267V38.7382L50.1638 38.478V38.3665Z" fill="#848484"/>
<path d="M51.5643 25.652C51.5643 25.652 51.8223 26.693 52.2646 27.4365C52.3015 27.5108 52.3384 27.5852 52.3752 27.6596C52.7069 28.2544 53.4809 28.4774 54.0707 28.1428C54.4393 27.9198 54.8447 27.7711 55.029 27.5108C55.2501 27.2506 55.6556 26.9532 55.6556 26.8788C55.6556 26.7673 55.6556 26.6186 55.6556 26.6186C55.6556 26.6186 55.0658 25.6892 54.9921 25.6892C54.9184 25.652 53.5915 24.7598 53.5915 24.7598L51.5643 25.652Z" fill="#C7C7C7"/>
<path d="M51.8961 22.6779C51.8224 22.6779 51.417 21.4883 51.417 21.4883C51.417 21.4883 52.0436 19.8897 53.4442 20.2986C54.8816 20.7076 56.614 22.5664 56.5771 23.2728C56.5403 24.0163 55.84 24.797 55.6188 25.0572C55.3977 25.3175 55.3977 25.9867 55.3977 25.9867C55.3977 25.9867 54.4025 26.061 54.0339 25.6149C53.6285 25.206 51.8961 22.6779 51.8961 22.6779Z" fill="#202020"/>
<path d="M51.417 21.4882C51.3432 21.5253 51.159 21.8599 51.159 22.083C51.159 22.3061 51.159 22.4176 51.159 22.4176C51.159 22.4176 50.6798 22.8637 50.5324 22.9752C50.4218 23.0868 50.0164 23.347 50.2744 23.5329C50.5324 23.7188 50.5324 23.7188 50.5324 23.7188C50.5324 23.7188 50.5324 23.8303 50.5324 24.0534C50.5324 24.2392 50.6798 24.3136 50.6798 24.3136C50.6798 24.3136 50.4586 24.2764 50.4955 24.4251C50.5324 24.5738 50.5324 24.6854 50.5324 24.6854C50.5324 24.6854 50.2006 24.9456 50.4955 25.3174C50.6061 25.4661 50.8272 25.5776 51.0852 25.6891C51.4907 25.8378 51.9698 25.9866 52.4121 25.9866C52.5596 25.9866 52.707 25.9494 52.8544 25.9122C53.4441 25.7263 54.0707 25.2802 54.0707 25.2802C54.0707 25.2802 54.8448 25.3546 55.029 25.1687C55.2502 24.9828 55.5819 24.5367 55.3976 24.3136C55.2133 24.0905 54.771 23.979 54.771 23.979C54.771 23.979 53.6653 24.4623 53.5179 24.388C53.3336 24.3136 54.6973 22.7522 53.8864 22.0458C53.0387 21.3766 51.417 21.4882 51.417 21.4882Z" fill="#E0E0E0"/>
<path d="M51.5643 20.8561C51.5643 20.8561 49.7952 20.8189 50.1269 21.0048C50.4586 21.2278 51.8223 22.2316 52.4489 22.4175C53.0755 22.6034 54.513 23.3097 54.513 23.3097C54.513 23.3097 56.7982 24.9455 57.2405 24.834C57.6459 24.7224 57.0562 22.6034 55.3607 22.1201C53.6284 21.674 51.5643 20.8561 51.5643 20.8561Z" fill="#6B6B6B"/>
<path d="M55.9136 19.7781C55.9136 19.7781 54.4761 19.0345 53.4072 19.2948C52.3015 19.5178 51.6012 20.8562 51.6012 20.8562C51.6012 20.8562 54.2918 22.0458 55.1764 22.6778C56.0979 23.3098 56.4296 23.756 56.835 23.4585C57.2036 23.1611 57.8671 20.9305 55.9136 19.7781Z" fill="#7C7C7C"/>
<path d="M56.8719 29.9644C56.8719 29.9644 56.061 31.6374 56.8719 33.236C57.6828 34.8345 58.3831 37.5484 58.3831 37.5484C58.3831 37.5484 53.6653 39.4073 53.5916 39.5188C53.5178 39.6303 53.7021 40.1508 53.6653 40.8572C53.6284 41.5264 59.8206 40.6713 60.6314 38.8125C61.4423 36.9908 60.7052 29.7413 59.2677 28.7004C57.8671 27.6594 56.8719 29.9644 56.8719 29.9644Z" fill="#3A3A3A"/>
<path d="M54.4762 41.9353L46.3305 38.2176L38.7378 32.1206L46.5885 35.7639L54.4762 41.9353Z" fill="#959595"/>
<path d="M54.1444 42.5301C53.9233 42.7532 53.6284 42.7904 53.223 42.493L45.4828 36.4332L46.4042 35.7268L54.0707 41.7123C54.4393 42.0097 54.5499 42.1956 54.1444 42.5301Z" fill="#6E6E6E"/>
<path d="M46.1831 35.541C46.8466 35.541 45.8514 36.3589 45.446 36.4704C45.0774 36.5448 45.5197 35.541 46.1831 35.541Z" fill="#FAFAFA"/>
<path d="M46.5148 38.9611C46.2936 39.1841 45.9988 39.2213 45.5933 38.9239L37.8531 32.8641L38.7746 32.1577L46.4411 38.1432C46.8096 38.4406 46.9202 38.5893 46.5148 38.9611Z" fill="#828282"/>
<path d="M38.5904 31.9719C39.2538 31.9719 38.2586 32.7898 37.8532 32.9013C37.4478 32.9757 37.8901 31.9719 38.5904 31.9719Z" fill="#6E6E6E"/>
<path d="M53.9601 39.4074C53.8495 39.3331 53.5547 39.0356 53.3335 38.9613C53.0755 38.8869 52.0435 38.5523 52.0435 38.5523C52.0435 38.5523 51.4538 38.5895 51.3063 38.6267C51.1589 38.6639 50.3849 38.3293 50.2006 38.4036C50.0532 38.478 50.09 38.6267 50.2375 38.7011C50.3849 38.7754 51.1221 39.4074 51.1221 39.4074L51.6012 39.5189C51.6012 39.5189 51.3801 40.0022 51.3063 40.0394C51.2326 40.0394 50.348 40.2253 50.348 40.2253C50.348 40.2253 49.9426 40.0766 49.8689 40.2253C49.7952 40.374 50.09 40.6342 50.09 40.6342C50.09 40.6342 50.09 40.8573 50.2743 40.9317C50.4586 41.006 50.4955 41.0432 50.4955 41.0432C50.4955 41.0432 50.4955 41.2662 50.6429 41.3406C50.7903 41.415 51.0115 41.5265 51.0115 41.5265C51.0115 41.5265 51.0852 41.6752 51.7855 41.7124C52.4858 41.7495 52.8544 41.1175 53.1492 40.9317C53.4441 40.7458 53.6653 40.9317 53.8864 40.9317C54.0707 40.9688 54.513 39.8535 53.9601 39.4074Z" fill="#C7C7C7"/>
<path d="M42.5341 36.5076C42.5341 36.5076 42.0918 36.9165 42.7184 37.1768C43.087 37.3255 43.7504 36.9165 43.7136 36.9537C43.6767 36.9909 43.6399 36.5447 43.1239 36.5447C42.9764 36.5076 42.5341 36.5076 42.5341 36.5076Z" fill="#C7C7C7"/>
<path d="M44.3033 37.8459C44.3033 37.8459 43.9347 38.1805 44.4507 38.3664C44.7456 38.4779 45.2985 38.1434 45.2616 38.1805C45.2248 38.2177 45.1879 37.8459 44.7825 37.8459C44.6719 37.8459 44.3033 37.8459 44.3033 37.8459Z" fill="#C7C7C7"/>
<path d="M43.6768 37.4741C43.6768 37.4741 43.2713 37.8459 43.8242 38.0689C44.1559 38.2177 44.7457 37.8459 44.7088 37.8459C44.672 37.8459 44.6351 37.4741 44.1928 37.4741C44.0822 37.4741 43.6768 37.4741 43.6768 37.4741Z" fill="#C7C7C7"/>
<path d="M43.345 37.2512C43.345 37.2512 42.9396 37.623 43.4924 37.8461C43.8242 37.9948 44.4139 37.623 44.377 37.623C44.3402 37.6602 44.3033 37.2512 43.861 37.2512C43.7504 37.2512 43.345 37.2512 43.345 37.2512Z" fill="#C7C7C7"/>
<path d="M54.2181 28.2545C53.6652 28.6262 52.7807 28.7006 52.3752 28.7006C52.3015 28.7006 52.2278 28.7006 52.2278 28.7006L52.3752 28.7378L54.6973 29.1839L54.6236 28.6634L55.2501 29.0352C55.2501 29.0352 55.6187 28.8121 55.8767 28.6634C56.1347 28.4775 56.3559 27.4738 56.2822 27.0276C56.2822 26.9533 56.2453 26.9161 56.2084 26.8417C55.9873 26.4328 55.3607 26.061 55.3607 26.061C55.3607 26.061 55.4713 26.2841 55.4344 26.5443C55.4344 26.5815 55.4344 26.6187 55.3976 26.6559C55.287 26.9161 54.9184 27.7712 54.2181 28.2545Z" fill="#626262"/>
</g>
<defs>
<clipPath id="clip0_407_471">
<rect width="61" height="69" fill="white"/>
</clipPath>
</defs>
</svg>
