<svg width="61" height="68" viewBox="0 0 61 68" fill="none" xmlns="http://www.w3.org/2000/svg">
<g clip-path="url(#clip0_407_354)">
<path d="M13.7112 12.6036C13.7112 12.6036 13.8586 12.164 12.3843 11.8342C10.91 11.5045 8.10877 9.96568 8.10877 9.96568C8.10877 9.96568 6.52388 7.91395 5.93415 7.51094C5.34442 7.10792 2.76436 4.43335 2.76436 4.43335C2.76436 4.43335 2.21149 4.76309 1.87977 4.94628C1.54805 5.12947 1.29004 4.98292 1.29004 4.98292C1.29004 4.98292 3.50152 10.9183 5.38128 12.0907C7.26104 13.2631 10.2834 14.2523 10.8731 14.9851C11.4628 15.7178 11.4628 16.2674 11.4628 16.2674C11.4628 16.2674 14.1166 14.179 13.7112 12.6036Z" fill="#006218"/>
<path d="M2.72749 4.72652L2.76435 4.43342C2.76435 4.43342 2.35891 2.63816 2.24834 2.38169C2.13776 2.12523 1.91662 1.72221 1.91662 1.68557C1.91662 1.6123 1.80604 1.02609 1.76918 0.989452C1.73233 0.952814 1.62175 0.916176 1.51118 0.476521C1.36375 0.0368661 1.32689 -0.146324 1.17946 0.110142C1.03202 0.366608 1.06888 0.659711 1.17946 0.842901C1.29003 1.02609 1.36375 1.02609 1.36375 1.24592C1.36375 1.50238 1.36375 1.83212 1.36375 1.83212C1.36375 1.83212 0.516012 1.72221 0.36858 1.79549C0.221148 1.83212 0 2.41833 0 2.52825C0 2.63816 0.221148 2.85799 0.221148 2.85799C0.221148 2.85799 0.147432 2.78471 0.073716 2.93126C0 3.07781 0 3.37092 0.147432 3.51747C0.331722 3.66402 0.479154 3.84721 0.479154 4.10368C0.479154 4.36014 0.55287 4.65325 0.73716 4.76316C0.92145 4.87307 1.36375 5.12954 1.65861 5.12954C1.91662 5.12954 2.58006 5.386 2.72749 4.72652Z" fill="#EEBAA6"/>
<path d="M10.9836 48.6553L9.10387 49.8643C9.10387 49.8643 6.2658 50.4872 5.97094 51.2932C5.67607 52.0992 6.89239 52.8686 7.88755 52.832C8.88272 52.7587 10.7993 51.513 11.6102 51.2932C12.4211 51.0734 13.3057 51.11 13.5268 50.6704C13.748 50.1941 13.3794 48.6553 13.3794 48.6553H10.9836Z" fill="#C8DEFF"/>
<path d="M11.0205 48.2522L9.14073 49.4613C9.14073 49.4613 6.30267 50.0841 6.0078 50.8901C5.71294 51.6962 6.92925 52.4656 7.92442 52.4289C8.91959 52.3556 10.8362 51.11 11.6471 50.8901C12.458 50.6703 13.3425 50.7069 13.5637 50.2673C13.7848 49.791 13.4163 48.2522 13.4163 48.2522H11.0205Z" fill="#015816"/>
<path d="M11.6839 25.3168C11.6839 25.3168 11.8314 23.8147 10.8362 26.3793C9.84102 28.944 9.10386 38.0668 9.58301 38.5431C10.099 39.056 10.4307 48.4353 10.4307 48.4353C10.4307 48.4353 11.5733 50.3039 13.3794 48.6185C14.1534 47.9224 14.1165 45.5776 14.1165 45.431C14.1165 45.2478 15.1854 42.6099 14.4114 41.181C13.6374 39.7155 15.0749 36.2716 15.0749 36.2716C15.0749 36.2716 15.296 28.2112 15.7383 27.5517C16.1806 26.9289 11.6839 25.3168 11.6839 25.3168Z" fill="#037620"/>
<path d="M21.5251 50.5972C21.5251 50.5972 21.4882 52.7954 21.1934 52.9786C20.8985 53.1618 20.2719 55.067 20.7511 55.5433C21.2302 56.0196 22.0779 56.0928 22.852 55.6532C23.626 55.2135 24.2526 53.6015 24.142 52.539C24.0314 51.4765 24.1051 50.414 23.8471 49.9743C23.5891 49.5713 22.594 49.3515 22.6308 49.2782C22.7045 49.2049 21.5251 50.5972 21.5251 50.5972Z" fill="#C8DEFF"/>
<path d="M21.4513 50.1576C21.4513 50.1576 21.4145 52.3559 21.1196 52.539C20.8248 52.7222 20.1982 54.6274 20.6773 55.1037C21.1565 55.58 22.0042 55.6533 22.7782 55.2136C23.5523 54.774 24.1788 53.1619 24.0683 52.0994C23.9577 51.0369 24.0314 49.9744 23.7734 49.5347C23.5154 49.1317 22.5202 48.9119 22.5571 48.8386C22.6677 48.802 21.4513 50.1576 21.4513 50.1576Z" fill="#015816"/>
<path d="M13.5269 27.442C13.5269 27.442 15.9226 41.2545 16.4018 41.914C16.8809 42.5734 18.2078 43.1596 19.1293 44.6984C20.6405 47.2997 20.7879 50.0109 21.8199 50.3407C22.8519 50.6704 22.7782 50.5605 23.2205 49.8644C23.6997 49.2049 23.0731 44.2588 22.8519 43.1596C22.6308 42.0605 20.3824 40.8881 20.4193 40.2286C20.4562 39.6058 20.7142 30.7027 19.2767 28.248C18.5764 27.0756 14.1534 25.4635 13.5269 27.442Z" fill="#1F8548"/>
<path d="M20.5668 21.7997C20.7879 20.7738 22.0411 18.2458 21.0459 17.0001C20.4193 16.2307 19.203 15.6445 18.3553 15.2782C18.3922 15.3514 18.429 15.3881 18.429 15.4613C18.5027 15.901 18.2816 16.9269 18.0236 17.0734C17.7656 17.2566 17.397 17.4398 17.397 17.4398L16.7704 17.0734L16.8441 17.5863L14.5221 17.1467C14.5221 17.1467 14.4483 17.1467 14.3746 17.1101H14.3378C14.1903 17.0734 13.9692 16.9635 13.8218 16.6704C13.5638 16.2307 13.4532 16.0109 13.4532 16.0109L13.8586 15.8277C13.8586 15.8277 13.4163 14.8385 13.8218 14.2157C13.5638 14.2157 13.6006 12.97 13.3795 13.1532C12.5686 13.9958 10.9468 16.304 10.7625 17.1101C10.4308 18.7588 10.394 22.5325 10.4308 22.8256C10.4677 23.082 10.5045 27.0756 10.5045 27.0756C10.5045 27.0756 12.4212 29.4204 15.0381 29.6402C17.655 29.8601 19.2399 28.2113 19.2399 28.2113C19.2399 28.2113 19.8296 27.2588 19.8296 26.5626C19.8665 24.5109 20.3825 22.8256 20.5668 21.7997Z" fill="#A0D03B"/>
<path d="M14.0798 16.0842C14.043 16.4139 14.4853 17.1101 14.5221 17.1833C14.8907 17.1833 15.8121 17.1467 16.365 16.7437C17.0653 16.2674 17.4339 15.4247 17.5445 15.1316C17.5445 15.095 17.5813 15.0583 17.5813 15.0217C17.4339 14.9851 17.3602 14.9484 17.3602 14.9484L15.591 15.2049C15.591 15.2049 15.2224 14.8385 14.7064 14.5454L14.6327 15.2049C14.5958 15.2049 14.1167 15.6445 14.0798 16.0842Z" fill="#63BF79"/>
<path d="M13.8954 15.901L13.49 16.0842C13.49 16.0842 13.6006 16.304 13.8586 16.7437C14.0429 17.0001 14.264 17.1101 14.4114 17.1833C14.4483 17.1833 14.4852 17.1833 14.5589 17.1833C14.522 17.1101 14.3009 16.0842 14.3377 15.7545C14.3746 15.3514 14.6326 15.2415 14.6326 15.2415L14.7432 14.1424C14.7432 14.1424 14.3009 13.6661 13.8586 14.3256C13.4531 14.9118 13.8954 15.901 13.8954 15.901Z" fill="#006218"/>
<path d="M14.5589 17.1834L14.4115 17.1467C14.4852 17.1834 14.5589 17.1834 14.5589 17.1834Z" fill="#00889D"/>
<path d="M16.365 16.7437C15.8121 17.11 14.9275 17.1833 14.5221 17.1833C14.4484 17.1833 14.3746 17.1833 14.3746 17.1833L14.5221 17.22L16.8441 17.6596L16.7704 17.1467L17.397 17.5131C17.397 17.5131 17.7656 17.2932 18.0236 17.1467C18.2816 16.9635 18.5027 15.9743 18.429 15.5346C18.429 15.4613 18.3922 15.4247 18.3553 15.3514C18.1341 14.9484 17.5076 14.582 17.5076 14.582C17.5076 14.582 17.6181 14.8019 17.5813 15.0583C17.5813 15.095 17.5813 15.1316 17.5444 15.1682C17.4338 15.4247 17.0653 16.2674 16.365 16.7437Z" fill="#006218"/>
<path d="M13.7112 14.1422C13.7112 14.1422 13.9692 15.1681 14.4115 15.9009C14.4483 15.9741 14.4852 16.0474 14.5221 16.1207C14.8538 16.7069 15.6278 16.9267 16.2175 16.597C16.5861 16.3772 16.9547 16.1573 17.1758 15.9741C17.7287 15.4979 17.8024 15.4246 17.8024 15.3513C17.8024 15.2414 17.8024 15.0948 17.8024 15.0948C17.8024 15.0948 17.2127 14.1789 17.139 14.1789C17.0653 14.1422 15.7384 13.2629 15.7384 13.2629L13.7112 14.1422Z" fill="#EEBAA6"/>
<path d="M14.4483 10.9915C14.3746 10.9915 14.1903 9.74577 14.1903 9.74577C14.1903 9.74577 15.0749 8.31689 16.4018 8.97638C17.7287 9.63586 19.0924 11.7609 18.9081 12.457C18.7238 13.1531 17.8761 13.8126 17.6181 13.9958C17.3601 14.179 17.5075 14.6919 17.5075 14.6919C17.5075 14.6919 16.5124 14.3255 16.2175 13.8126C15.9595 13.2997 14.4483 10.9915 14.4483 10.9915Z" fill="#202020"/>
<path d="M14.1903 9.74585C14.1166 9.74585 13.8586 10.039 13.8217 10.2954C13.7849 10.5152 13.748 10.6252 13.748 10.6252C13.748 10.6252 13.1952 10.9549 13.0477 11.0648C12.9003 11.1381 12.458 11.3213 12.6791 11.5411C12.9003 11.7243 12.9003 11.7243 12.9003 11.7243C12.9003 11.7243 12.8634 11.8342 12.8266 12.0174C12.7897 12.2006 12.9003 12.3105 12.9003 12.3105C12.9003 12.3105 12.6791 12.2372 12.6791 12.3838C12.6791 12.5303 12.6423 12.6402 12.6423 12.6402C12.6423 12.6402 12.2737 12.8601 12.4949 13.2265C12.5686 13.373 12.7529 13.5562 13.0109 13.7027C13.3794 13.9226 13.8217 14.1424 14.264 14.2523C14.4115 14.289 14.5589 14.289 14.7063 14.289C15.3329 14.2523 15.9964 13.9226 15.9964 13.9226C15.9964 13.9226 16.7335 14.1424 16.9915 13.9958C17.2495 13.8493 17.655 13.4829 17.5075 13.2265C17.397 13.0066 16.9547 12.8234 16.9547 12.8234C16.9547 12.8234 15.7752 13.0799 15.6278 12.97C15.4804 12.8601 17.0652 11.6144 16.4387 10.7717C15.8121 9.92904 14.1903 9.74585 14.1903 9.74585Z" fill="#FDD6C5"/>
<path d="M14.4852 9.15953C14.4852 9.15953 12.7528 8.79315 13.0477 9.04961C13.3057 9.30608 14.4852 10.5518 15.0749 10.8449C15.6646 11.138 16.9178 12.0906 16.9178 12.0906C16.9178 12.0906 18.8713 14.1056 19.3136 14.069C19.7559 14.0324 19.5716 11.8707 17.9867 11.1013C16.3649 10.2953 14.4852 9.15953 14.4852 9.15953Z" fill="#006218"/>
<path d="M18.945 8.90303C18.945 8.90303 17.6919 7.95044 16.5493 7.95044C15.4067 7.98708 14.4852 9.12285 14.4852 9.12285C14.4852 9.12285 16.881 10.7716 17.655 11.541C18.429 12.347 18.687 12.8233 19.1293 12.6035C19.5716 12.4569 20.6405 10.4052 18.945 8.90303Z" fill="#1F8548"/>
<path d="M19.0187 18.4289C19.0187 18.4289 18.2078 20.0776 19.0187 21.653C19.8296 23.2285 20.5299 25.903 20.5299 25.903C20.5299 25.903 19.5716 32.8276 19.4979 32.9375C19.4242 33.0474 20.8616 33.194 20.8248 33.8901C20.7879 34.5496 23.5891 27.9547 23.2574 25.9397C22.9257 23.9978 22.8888 18.2457 21.4513 17.2198C19.977 16.1207 19.0187 18.4289 19.0187 18.4289Z" fill="#006218"/>
<path d="M20.53 32.9742C20.53 32.9742 19.7928 32.7177 19.4979 32.9009C19.2031 33.0475 18.6502 33.707 18.6502 33.707L17.9868 35.1358C17.9868 35.1358 18.0236 35.6121 17.9868 35.7587C17.9499 35.8686 18.2079 36.3083 18.2079 36.4914C18.2079 36.6746 18.3922 36.8212 18.5765 36.6746C18.7608 36.5647 18.7608 36.1983 18.6502 36.0518C18.5396 35.9052 18.6133 35.1725 18.9082 35.0626C19.2399 34.9527 19.2399 35.319 19.2399 35.319V36.8578L18.9082 37.0777C18.9082 37.0777 18.5028 37.2975 18.3553 37.4074C18.2079 37.4807 18.1342 37.8837 18.4659 37.8104C18.7608 37.7738 19.0188 37.7738 19.0188 37.7738L19.7928 37.1876C19.7928 37.1876 20.1614 36.6014 20.3088 36.5647C20.4562 36.5281 20.5668 36.1983 20.7511 35.9785C20.9354 35.7587 20.9354 35.0992 20.9354 34.8061C20.9354 34.5496 21.046 33.3039 20.53 32.9742Z" fill="#EEBAA6"/>
<path d="M10.5414 26.6726C10.5414 26.6726 11.0942 28.2847 13.4532 28.7976C15.8121 29.3105 16.9178 28.9442 17.5444 28.761C18.2447 28.5778 19.4979 27.9549 19.4979 27.9549V28.6144C19.4979 28.6144 18.3184 30.0799 14.0797 29.6769C11.2785 29.4205 10.5045 27.6985 10.5045 27.6985L10.5414 26.6726Z" fill="#202020"/>
<path d="M12.4949 28.5777L12.458 29.3471C12.458 29.457 12.5317 29.5669 12.6423 29.6036C12.9003 29.6769 13.3426 29.7868 13.4532 29.7868C13.6006 29.7868 13.5269 29.6769 13.5269 29.6769L12.9372 29.4937C12.8266 29.457 12.7529 29.3471 12.7529 29.2372V28.8708C12.7529 28.7609 12.8634 28.651 12.974 28.6876C13.232 28.7609 13.5637 28.8342 13.5637 28.8342C13.5269 28.8342 13.7112 28.6144 13.4163 28.5411C13.232 28.5044 12.9372 28.4312 12.716 28.3945C12.6054 28.3945 12.4949 28.4678 12.4949 28.5777Z" fill="#368392"/>
<path d="M12.3474 28.8342L12.974 29.0907V29.2006L12.3474 28.9441V28.8342Z" fill="#00BACC"/>
<path d="M14.5221 17.1101C14.5221 17.1101 13.3795 19.5648 13.0109 21.5433C12.6054 23.5217 12.9003 28.4312 12.9003 28.4312L13.2689 28.5045C13.2689 28.5045 12.974 23.2286 13.8217 21.067C14.4483 19.4916 15.0749 17.2933 15.0749 17.2933L14.7063 17.4398L14.5221 17.1101Z" fill="#006218"/>
<path d="M12.458 20.2243C12.0894 20.151 11.6103 19.9678 11.2417 19.8213C10.9468 19.4549 10.7994 19.1984 10.652 18.6489C10.6888 18.3191 10.7626 18.026 10.7994 17.6963C11.426 18.429 12.0894 18.9786 12.7529 19.345C12.716 19.6381 12.4949 19.9312 12.458 20.2243Z" fill="#006218"/>
<path d="M17.139 23.2285C16.7704 23.1919 16.4018 23.1553 16.0332 23.0454C15.6647 22.7523 15.2961 22.3859 14.9275 22.0195C14.9275 21.6898 15.0012 21.2867 15.1486 21.0303C15.8858 21.6531 16.623 22.0928 17.3233 22.3126C17.3601 22.6423 17.139 22.9354 17.139 23.2285Z" fill="#006218"/>
<path d="M37.8532 14.6554L38.0006 13.0799C38.0006 13.0799 37.0792 12.3838 38.2218 12.0174C39.3644 11.6511 39.9541 11.248 41.8339 12.0174C43.7136 12.7868 43.8979 14.9851 43.1239 16.1209C42.3499 17.2567 41.6127 17.9528 41.6127 17.9528C41.6127 17.9528 41.6127 17.0002 41.0599 16.9636C40.507 16.8903 41.023 17.8062 39.9541 16.4873C38.8852 15.2049 37.8532 14.6554 37.8532 14.6554Z" fill="#000405"/>
<path d="M35.9734 20.9204C35.7891 20.9204 34.4622 21.3967 32.9879 22.1661C31.5136 22.9355 30.0024 23.1187 30.0024 23.1187C30.0024 23.1187 28.7492 23.3752 27.1643 23.8881C25.5057 24.4377 25.2846 24.2545 25.2846 24.2545C25.2846 24.2545 23.9946 24.6209 23.4048 24.2545C22.8151 23.8881 22.5571 23.6683 22.3359 23.8148C22.1517 23.9614 22.0411 23.7416 22.0411 23.7416C22.0411 23.7416 22.2622 24.0713 22.0411 24.1079C21.8199 24.1446 21.6725 24.0713 21.6725 24.0713C21.6725 24.0713 21.3039 23.8515 21.3039 23.6316C21.3039 23.4118 21.4145 23.3385 21.4145 23.3385C21.4145 23.3385 21.1565 23.3385 21.3039 23.0821C21.4514 22.8256 21.4514 22.8256 21.4514 22.8256C21.4514 22.8256 21.3039 22.4226 21.4145 22.2394C21.5251 22.0562 22.4097 21.9463 22.4097 21.9463C22.4097 21.9463 20.493 21.3235 20.4562 20.9937C20.4193 20.664 23.0731 21.3235 23.2205 21.3601C23.368 21.4334 25.2477 22.4592 25.2477 22.4592C25.2477 22.4592 26.5378 22.2394 27.4961 21.5799C28.4544 20.8838 29.4495 20.9204 29.4495 20.9204C29.4495 20.9204 32.435 19.8579 32.8036 19.2351C33.1722 18.6123 33.9831 17.5498 34.9045 17.4398C35.7891 17.3666 35.9734 20.9204 35.9734 20.9204Z" fill="#EEBAA6"/>
<path d="M35.826 17.6597C35.6786 17.5864 35.1626 17.1468 34.0937 17.6597C33.0248 18.1726 32.8036 19.0886 32.5088 19.345C32.2139 19.6015 30.113 20.5541 30.113 20.5541L29.9656 20.7006C29.9656 20.7006 31.145 20.5175 31.3293 21.6532C31.5136 22.789 30.7765 22.9722 30.7765 22.9722C30.7765 22.9722 32.8405 22.7157 34.278 22.2394C35.7154 21.7631 35.9734 21.2502 36.2314 20.3343C36.4894 19.455 35.826 17.6597 35.826 17.6597Z" fill="#1F8548"/>
<path d="M38.0005 52.7222C38.0005 52.7222 36.6368 54.1511 35.7522 54.261C34.8676 54.3343 34.4622 54.5908 33.8356 55.1403C33.209 55.6899 33.3933 56.2028 35.1256 56.3127C36.858 56.4226 36.858 55.6166 38.1848 55.5433C39.5117 55.4701 39.3274 55.7632 39.7697 55.3235C39.8435 55.2502 39.9172 55.1037 39.9172 54.9205C40.0646 54.1145 39.7697 52.6123 39.7697 52.6123L38.0005 52.7222Z" fill="#C8DEFF"/>
<path d="M38.0005 52.3558C38.0005 52.3558 36.6368 53.7846 35.7522 53.8946C34.8676 53.9678 34.4622 54.2243 33.8356 54.7739C33.209 55.3234 33.3933 55.8364 35.1256 55.9463C36.858 56.0562 36.858 55.2502 38.1848 55.1769C39.5117 55.1036 39.3274 55.3967 39.7697 54.9571C39.8435 54.8838 39.9172 54.7372 39.9172 54.554C40.0646 53.748 39.7697 52.2458 39.7697 52.2458L38.0005 52.3558Z" fill="#015816"/>
<path d="M40.1015 53.8579C40.1015 53.8579 39.3644 53.9678 39.5487 54.5907C39.7329 55.2135 39.5855 56.3493 39.3275 57.082C39.0695 57.8148 38.8483 59.1338 39.2538 59.5001C39.6592 59.8665 41.3547 59.5368 41.6127 58.9139C41.9076 58.3277 42.0181 57.0454 41.9076 56.4958C41.7601 55.9463 41.5021 54.151 41.3178 54.0411C41.1704 53.8945 40.1015 53.8579 40.1015 53.8579Z" fill="#C8DEFF"/>
<path d="M40.1015 53.5283C40.1015 53.5283 39.3644 53.6382 39.5487 54.2611C39.7329 54.8839 39.5855 56.0197 39.3275 56.7525C39.0695 57.4852 38.8483 58.8042 39.2538 59.1706C39.6592 59.5369 41.3547 59.2072 41.6127 58.5843C41.9076 57.9981 42.0181 56.7158 41.9076 56.1662C41.7601 55.6167 41.5021 53.8214 41.3178 53.7115C41.1704 53.565 40.1015 53.5283 40.1015 53.5283Z" fill="#015816"/>
<path d="M36.1945 28.6877C36.1945 28.6877 35.6417 33.7071 35.7154 36.5283C35.8628 42.0239 36.084 42.7933 36.4525 44.552C36.8211 46.3106 37.6689 52.539 37.6689 52.7222C37.6689 52.9054 37.7426 53.5649 38.8115 53.2718C39.8803 52.9787 40.4701 52.0261 40.4701 52.0261C40.4701 52.0261 41.0229 46.2373 40.0278 44.5153C39.0326 42.7933 38.9957 42.5369 39.0695 42.3171C39.1432 42.0972 40.3226 36.2352 40.0646 32.7179C39.8066 29.2007 36.1945 28.6877 36.1945 28.6877Z" fill="#037620"/>
<path d="M37.89 32.7178C37.89 32.7178 39.18 43.2695 39.4381 45.2113C39.6592 47.1531 39.4381 54.8837 39.4381 54.8837C39.4381 54.8837 39.6223 55.6898 40.6544 55.3967C41.6864 55.1036 41.6864 54.2975 41.6864 54.2975C41.6864 54.2975 43.2713 48.9484 42.9027 47.1165C42.5341 45.2846 42.2393 44.735 42.4236 43.8557C42.6078 42.9764 44.5245 36.4915 44.0822 33.6337C43.603 30.776 42.6816 28.4312 42.6816 28.4312H38.2955C38.2586 28.4678 37.5214 29.9333 37.89 32.7178Z" fill="#1F8548"/>
<path d="M34.4991 20.9204C34.4991 20.9204 35.1994 24.4011 35.3837 25.7567C35.5311 27.1123 35.7522 31.5088 35.7522 31.5088C35.7522 31.5088 37.116 32.6079 40.0646 32.7179C43.0133 32.8278 43.5661 31.3623 43.5661 31.3623C43.5661 31.3623 42.7921 29.3105 43.1607 28.0648C43.5661 26.8192 44.0453 24.9873 44.5244 23.8881C45.0036 22.789 45.5933 20.9937 42.7184 19.2351C39.8435 17.4398 35.568 17.0735 34.7571 17.5131C33.9093 17.9528 34.4991 20.9204 34.4991 20.9204Z" fill="#A8DE68"/>
<path d="M41.6127 17.9528C41.6127 17.9528 38.8115 16.7071 38.0006 18.136C36.8581 20.1511 37.6321 21.0304 37.6321 21.0304L38.7747 20.2244L39.2538 21.8364C39.2538 21.8364 42.2393 21.6899 42.4605 19.5649C42.6079 18.3925 41.6127 17.9528 41.6127 17.9528Z" fill="#1F8548"/>
<path d="M27.533 28.3579L32.9142 31.4354L37.3003 32.6445L37.7058 32.1316L33.4302 30.8492L27.8647 27.9548L27.533 28.3579Z" fill="#015816"/>
<path d="M29.1547 28.6876L27.8646 27.9548L33.7619 29.8966L38.2586 32.4979L33.1722 31.0324L29.1547 28.6876Z" fill="#048724"/>
<path d="M33.209 30.8493L28.4912 28.2847L33.6882 30.0067L37.5214 32.1683L33.209 30.8493Z" fill="#D4FFFF"/>
<path d="M43.1607 22.4593C43.1607 22.4593 42.2392 23.5584 43.4555 25.317C44.6718 27.0757 44.893 28.7244 44.893 28.7244L41.2072 30.6295L39.4012 31.6554C39.4012 31.6554 39.2169 30.8494 38.4797 30.7761C37.7425 30.7028 36.9317 30.5196 36.9317 30.5196C36.9317 30.5196 36.4525 30.6295 36.1945 30.5929C35.9365 30.5563 36.0839 30.8494 36.1945 31.0692C36.3051 31.2524 36.9317 31.1425 36.9685 31.1425C37.0054 31.1425 37.7794 31.5821 37.7794 31.5821L37.0422 32.0218L35.7522 32.2783C35.7522 32.2783 35.1625 31.5821 34.8308 31.802C34.499 32.0218 35.015 32.1683 35.1256 32.2783C35.1993 32.4248 35.3468 32.7179 35.4573 32.7545C35.5679 32.7912 36.2682 32.9377 36.2682 32.9377C36.2682 32.9377 36.8579 33.2675 36.8948 33.3041C36.9317 33.3408 38.2586 33.5606 38.5166 33.5239C38.7746 33.4873 39.0326 33.0843 40.0646 32.9377C41.1335 32.7545 46.1462 31.1058 46.8833 30.1533C47.6205 29.2007 46.9202 26.8192 46.7359 25.9399C46.5516 25.0606 46.3673 22.5692 45.7039 21.7265C45.0404 20.9205 43.4924 21.7632 43.1607 22.4593Z" fill="#EEBAA6"/>
<path d="M38.6272 18.0994C38.6272 18.0994 38.7009 19.2718 38.7746 19.9313C38.8483 20.5541 40.2858 20.2244 40.9492 19.7481C41.0967 19.6382 41.2073 19.5282 41.3178 19.455C41.6127 19.1985 41.7233 18.7955 41.6496 18.4291C41.6127 18.3192 41.6127 18.1726 41.6127 17.9894C41.6127 17.2567 41.8338 16.5239 41.8338 16.5239L38.6272 18.0994Z" fill="#EEBAA6"/>
<path d="M38.0005 13.0798C38.0005 13.0798 37.3002 14.3622 37.4108 14.8018C37.5582 15.2781 37.3002 15.4613 37.2634 15.7544C37.2265 16.0475 37.3371 17.0734 37.3371 17.3298C37.3371 17.5863 37.3371 18.026 37.5951 18.2824C37.8531 18.5389 38.0743 18.5389 38.4428 18.5389C38.8114 18.5389 39.8434 18.2824 40.1752 18.0992C40.5069 17.8794 40.9123 17.1833 40.9123 17.1833C40.9123 17.1833 41.2072 17.4397 41.5021 17.2566C41.7969 17.0734 42.4972 16.707 42.2392 16.1574C41.9812 15.6079 41.7969 15.5712 41.4283 15.7544C41.0598 15.9376 40.6543 16.304 40.6543 16.0109C40.6543 15.7178 40.986 14.9117 40.6175 14.4721C40.212 14.0324 40.1383 14.6186 39.2169 14.2156C38.3691 13.8859 38.0005 13.0798 38.0005 13.0798Z" fill="#FDD6C5"/>
<path d="M43.1239 20.7006C43.1239 20.7006 43.4187 20.1877 43.861 20.1144C44.3033 20.0411 46.1831 20.9571 46.4042 23.0088C46.6254 25.0605 46.9939 26.9657 46.9939 26.9657C46.9939 26.9657 47.1045 27.7717 45.8513 28.3213C44.5982 28.8709 44.4876 28.4679 44.4876 28.4679C44.4876 28.4679 44.2665 28.1381 43.9716 27.5886C43.345 26.5261 42.3867 24.6942 42.3867 23.4485C42.313 21.6532 43.1239 20.7006 43.1239 20.7006Z" fill="#1F8548"/>
<path d="M44.1191 28.6876C44.2297 29.0173 45.446 29.5669 46.4043 28.8342C47.3626 28.138 47.2152 27.2221 47.1414 26.8923C47.0677 26.5626 46.8466 26.3428 46.8466 26.3428C46.8466 26.3428 46.6254 27.6251 45.5934 27.8083C44.5614 27.9548 43.8242 27.4419 43.8242 27.4419C43.8242 27.4419 44.0085 28.3579 44.1191 28.6876Z" fill="#07672E"/>
<path d="M21.5619 28.2845C21.5619 28.2845 19.6453 28.2479 18.5027 27.1121L17.9867 26.2694C18.2816 26.1229 20.1245 26.0129 20.1245 26.0129C20.5668 25.9763 20.8616 26.0496 21.0828 26.1595C21.9674 26.7457 21.5619 28.2845 21.5619 28.2845Z" fill="#D4FFFF"/>
<path d="M21.6357 28.2846L21.1196 28.5777L9.3988 21.873L9.91482 21.5432L21.6357 28.2846Z" fill="#02701D"/>
<path d="M21.1196 28.5778L29.3021 45.4312L17.5813 38.7265L9.3988 21.873L21.1196 28.5778Z" fill="#068E3D"/>
<path d="M21.6356 28.2847L29.855 45.1381L29.3021 45.4312L21.1196 28.5778L21.6356 28.2847Z" fill="#02701D"/>
<path d="M18.3184 32.4978C18.3184 32.5711 18.3553 32.6444 18.4658 32.7176C18.6501 32.8275 18.9819 32.8275 19.203 32.7176C19.3136 32.6444 19.3504 32.5711 19.3504 32.4978L19.0187 56.9719C19.0187 57.0452 18.9819 57.1185 18.8713 57.1918C18.687 57.3017 18.3553 57.3017 18.1341 57.1918C18.0236 57.1185 17.9867 57.0452 17.9867 56.9719L18.3184 32.4978Z" fill="#015816"/>
<path d="M18.3184 32.4978C18.3184 32.5711 18.3553 32.6444 18.4659 32.7176C18.6502 32.8275 18.9819 32.8275 19.203 32.7176C19.3136 32.6444 19.3505 32.5711 19.3505 32.4978L14.1903 65.3987C14.1903 65.4719 14.1535 65.5452 14.0429 65.6185C13.8586 65.7284 13.5269 65.7284 13.3058 65.6185C13.1952 65.5452 13.1583 65.4719 13.1583 65.3987L18.3184 32.4978Z" fill="#02701D"/>
<path d="M18.3185 32.4979C18.3185 32.5712 18.3185 32.2414 18.5028 31.7651C18.5765 31.5453 18.8714 31.3988 19.0925 31.8384C19.1294 31.9483 19.3505 32.5712 19.3505 32.4979L28.6019 62.4677C28.6019 62.541 28.565 62.6143 28.4544 62.6875C28.2701 62.7975 27.9384 62.7975 27.7173 62.6875C27.6067 62.6143 27.5698 62.541 27.5698 62.4677L18.3185 32.4979Z" fill="#02701D"/>
<path d="M16.9915 23.8514C15.7384 22.8989 13.9692 22.0562 12.6054 21.9096C10.91 21.7264 8.44048 22.0928 7.51903 25.6467C4.71782 36.5648 7.88761 37.957 7.88761 37.957L18.0973 45.1014C18.0973 45.1014 15.7015 38.2868 16.7704 32.2415C17.5076 27.9915 18.8713 26.6359 19.6453 26.1963C19.6453 26.1963 19.6822 26.1963 19.6822 26.1596C19.977 26.0131 20.1613 25.9764 20.1613 25.9764C20.6036 25.9398 20.8985 26.0131 21.1196 26.123V26.0863L16.9915 23.8514Z" fill="#D4FFFF"/>
<path d="M19.6821 26.2696L19.6084 26.2329C19.6084 26.2329 19.6453 26.2329 19.6453 26.1963L19.6821 26.2696Z" fill="#5FAAB6"/>
<path d="M50.3481 59.9397L48.6526 61.4052C48.6526 61.4052 46.6622 62.2845 46.5148 63.1272C46.3305 63.9698 47.6943 64.556 48.6526 64.3362C49.6109 64.1164 50.6061 62.7608 51.3801 62.3944C52.1541 62.0647 53.0387 61.9547 53.1861 61.4785C53.3335 60.9655 52.707 59.5 52.707 59.5L50.3481 59.9397Z" fill="#C8DEFF"/>
<path d="M50.3481 59.4267L48.6526 60.8922C48.6526 60.8922 46.6622 61.7715 46.5148 62.6142C46.3305 63.4569 47.6943 64.0431 48.6526 63.8233C49.6109 63.6034 50.6061 62.2478 51.3801 61.8815C52.1541 61.5517 53.0387 61.4418 53.1861 60.9655C53.3335 60.4526 52.707 58.9871 52.707 58.9871L50.3481 59.4267Z" fill="#015816"/>
<path d="M49.5372 36.4181C49.5372 36.4181 49.6846 34.916 48.6895 37.4806C47.6943 40.0453 46.1463 48.472 46.6254 48.9849C47.1414 49.4979 49.4635 57.3384 49.7952 58.2543C50.1269 59.1703 50.1269 59.5733 50.1269 59.5733C50.1269 59.5733 51.5275 60.4893 52.3384 59.8298C53.1493 59.1703 53.1493 58.5108 53.1493 58.3643C53.1493 58.1811 53.1124 53.125 52.3384 51.6961C51.5644 50.2673 50.9378 49.0582 50.9378 49.0582C50.9378 49.0582 53.1493 39.3858 53.5916 38.7263C54.0707 38.0668 49.5372 36.4181 49.5372 36.4181Z" fill="#037620"/>
<path d="M54.1445 61.6251C54.1445 61.6251 53.8496 63.8233 53.5179 63.9333C53.1862 64.0432 52.3385 65.8751 52.7439 66.4246C53.1862 66.9742 53.9971 67.1208 54.8448 66.791C55.6925 66.4613 56.5034 64.9225 56.5403 63.8966C56.5771 62.8341 56.7614 61.7716 56.5771 61.332C56.3928 60.8923 55.4345 60.5626 55.4714 60.4893C55.5083 60.3794 54.1445 61.6251 54.1445 61.6251Z" fill="#C8DEFF"/>
<path d="M54.1445 61.1856C54.1445 61.1856 53.8496 63.3839 53.5179 63.4938C53.1862 63.6037 52.3385 65.4356 52.7439 65.9852C53.1862 66.5348 53.9971 66.6813 54.8448 66.3516C55.6925 66.0218 56.5034 64.483 56.5403 63.4572C56.5771 62.3947 56.7614 61.3322 56.5771 60.8925C56.3928 60.4529 55.4345 60.1231 55.4714 60.0498C55.5083 59.9766 54.1445 61.1856 54.1445 61.1856Z" fill="#015816"/>
<path d="M51.417 38.5799C51.417 38.5799 52.0436 51.4032 52.5227 52.0627C53.0019 52.7221 53.8865 56.679 53.9971 58.4743C54.1076 60.2329 53.7022 61.7717 54.7342 62.1014C55.7662 62.4312 56.0611 62.1014 56.5034 61.442C56.9826 60.7825 57.904 56.0562 57.6829 54.957C57.4617 53.8579 56.7614 52.5389 56.7983 51.9161C56.8351 51.2933 58.3094 41.2911 57.7197 40.0088C57.13 38.6532 52.0067 36.6014 51.417 38.5799Z" fill="#1F8548"/>
<path d="M51.1221 25.9764L51.3801 25.4634C51.3801 25.4634 49.6846 25.1703 49.1317 26.7458C48.5789 28.3212 48.5052 29.5669 48.3577 30.1897C48.1734 30.8126 47.5469 32.3514 47.5469 32.3514C47.5469 32.3514 46.9571 32.6078 46.2937 33.4872C45.6302 34.3665 44.3033 36.7113 44.3033 36.7113C44.3033 36.7113 45.3354 37.2975 45.4091 37.3341C45.4828 37.3708 45.0405 38.0303 46.0357 37.7738C47.0677 37.5173 49.2423 36.1617 49.9795 33.707C50.7166 31.2522 51.1221 25.9764 51.1221 25.9764Z" fill="#07672E"/>
<path d="M58.4568 32.9009C58.678 31.8751 59.9311 29.3471 58.936 28.1014C58.3094 27.332 57.0931 26.7458 56.2453 26.3794C56.2822 26.4527 56.319 26.4893 56.319 26.5626C56.3928 27.0022 56.1716 28.0281 55.9136 28.1747C55.6556 28.3578 55.287 28.541 55.287 28.541L54.6604 28.1747L54.7341 28.6876L52.4121 28.2479C52.4121 28.2479 52.3384 28.2479 52.2647 28.2113H52.2278C52.0804 28.1747 51.8592 28.0647 51.7118 27.7716C51.4538 27.332 51.3432 27.1122 51.3432 27.1122L51.7486 26.929C51.7486 26.929 51.3064 25.9397 51.7118 25.3169C51.4538 25.3169 51.1958 25.3535 51.0115 25.5734C50.2006 26.416 48.5789 30.263 48.6526 31.0691C48.7263 31.8751 49.316 34.3298 49.316 34.6229C49.3529 34.8794 49.0212 36.638 49.0212 36.638C49.0212 36.638 50.0532 39.0928 52.6332 39.2759C55.2502 39.4958 57.0931 38.2501 57.0931 38.2501C57.0931 38.2501 56.7613 37.2975 56.8719 36.6014C57.0193 36.0152 58.2357 33.9268 58.4568 32.9009Z" fill="#A0D03B"/>
<path d="M52.2647 28.2114C52.2647 28.2114 51.1221 30.6662 50.7535 32.608C50.3481 34.5864 50.5692 40.1188 50.5692 40.1188L51.1958 40.3386C51.1958 40.3386 50.4218 34.1101 51.2695 31.9119C51.8961 30.3364 52.6333 28.2481 52.6333 28.2481H52.449L52.2647 28.2114Z" fill="#1F8548"/>
<path d="M50.5692 32.0219C50.2006 31.9486 49.7215 31.7654 49.3529 31.6189C49.058 31.2525 48.9106 30.996 48.7632 30.4464C48.8 30.1167 49.0212 29.8969 49.058 29.5671C49.6846 30.2999 50.2006 30.7762 50.8641 31.1426C50.8272 31.4723 50.6061 31.7288 50.5692 32.0219Z" fill="#1F8548"/>
<path d="M54.1813 34.1468C53.8127 34.1101 53.4442 34.0735 53.0756 33.9636C52.707 33.6705 52.3384 33.3041 51.9698 32.9377C51.9698 32.608 52.0436 32.205 52.191 31.9485C52.9282 32.5713 53.6653 33.011 54.3656 33.2308C54.4025 33.5606 54.1813 33.8537 54.1813 34.1468Z" fill="#1F8548"/>
<path d="M51.9698 27.1855C51.933 27.5153 52.3753 28.2114 52.4121 28.2847C52.7807 28.2847 53.7022 28.248 54.255 27.845C54.9553 27.3687 55.3239 26.526 55.4345 26.2329C55.4345 26.1963 55.4713 26.1597 55.4713 26.123C55.3239 26.0864 55.2502 26.0497 55.2502 26.0497L53.481 26.3062C53.481 26.3062 53.1124 25.9398 52.5964 25.6467L52.5227 26.3062C52.4858 26.3429 52.0067 26.7825 51.9698 27.1855Z" fill="#00C850"/>
<path d="M51.7487 27.0023L51.3433 27.1855C51.3433 27.1855 51.4538 27.4053 51.7118 27.845C51.8961 28.1015 52.1173 28.2114 52.2647 28.2846C52.3016 28.2846 52.3384 28.2846 52.4121 28.2846C52.3753 28.2114 52.1541 27.1855 52.191 26.8558C52.2279 26.4528 52.4859 26.3428 52.4859 26.3428L52.5964 25.2437C52.5964 25.2437 52.1541 24.7674 51.7118 25.4269C51.3064 26.0131 51.7487 27.0023 51.7487 27.0023Z" fill="#1F8548"/>
<path d="M52.4121 28.3213L52.2646 28.2847C52.3384 28.3213 52.4121 28.3213 52.4121 28.3213Z" fill="#00889D"/>
<path d="M49.2055 35.9785C49.2055 35.9785 48.9106 37.2608 51.2695 37.7738C53.6285 38.2867 54.7342 38.1402 55.3608 37.9936C56.0611 37.8104 56.9088 37.0044 56.9088 37.0044L57.0194 37.7738C57.0194 37.7738 57.0194 39.3858 52.8176 38.9828C50.0164 38.7264 48.8738 37.0044 48.8738 37.0044L49.2055 35.9785Z" fill="#202020"/>
<path d="M50.3113 37.554L50.2744 38.3234C50.2744 38.4333 50.3481 38.5433 50.4587 38.5799C50.7167 38.6532 51.159 38.7631 51.2696 38.7631C51.417 38.7631 51.3433 38.6532 51.3433 38.6532L50.7536 38.47C50.643 38.4333 50.5693 38.3234 50.5693 38.2135V37.8471C50.5693 37.7372 50.6799 37.6273 50.7904 37.664C51.0484 37.7372 51.3802 37.8105 51.3802 37.8105C51.3433 37.8105 51.5276 37.5907 51.2327 37.5174C51.0484 37.4808 50.7536 37.4075 50.5324 37.3708C50.4219 37.3708 50.3113 37.4441 50.3113 37.554Z" fill="#1F8548"/>
<path d="M50.1638 37.8103L50.7904 38.0668V38.1767L50.1638 37.9202V37.8103Z" fill="#00BACC"/>
<path d="M51.5643 25.2802C51.5643 25.2802 51.8223 26.3061 52.2646 27.0388C52.3015 27.1121 52.3384 27.1854 52.3752 27.2586C52.7069 27.8448 53.4809 28.0647 54.0707 27.7349C54.4393 27.5151 54.8447 27.3686 55.029 27.1121C55.2501 26.8556 55.6556 26.5625 55.6556 26.4892C55.6556 26.3793 55.6556 26.2328 55.6556 26.2328C55.6556 26.2328 55.0658 25.3168 54.9921 25.3168C54.9184 25.2802 53.5915 24.4009 53.5915 24.4009L51.5643 25.2802Z" fill="#EEBAA6"/>
<path d="M51.8961 22.3493C51.8224 22.3493 51.417 21.1769 51.417 21.1769C51.417 21.1769 52.0436 19.6014 53.4442 20.0044C54.8816 20.4075 56.614 22.2394 56.5771 22.9355C56.5403 23.6682 55.84 24.4376 55.6188 24.6941C55.3977 24.9506 55.3977 25.61 55.3977 25.61C55.3977 25.61 54.4025 25.6833 54.0339 25.2437C53.6285 24.8406 51.8961 22.3493 51.8961 22.3493Z" fill="#202020"/>
<path d="M51.417 21.1768C51.3432 21.2134 51.159 21.5432 51.159 21.763C51.159 21.9828 51.159 22.0927 51.159 22.0927C51.159 22.0927 50.6798 22.5324 50.5324 22.6423C50.4218 22.7522 50.0164 23.0087 50.2744 23.1919C50.5324 23.3751 50.5324 23.3751 50.5324 23.3751C50.5324 23.3751 50.5324 23.485 50.5324 23.7048C50.5324 23.888 50.6798 23.9613 50.6798 23.9613C50.6798 23.9613 50.4586 23.9246 50.4955 24.0712C50.5324 24.2177 50.5324 24.3277 50.5324 24.3277C50.5324 24.3277 50.2006 24.5841 50.4955 24.9505C50.6061 25.0971 50.8272 25.207 51.0852 25.3169C51.4907 25.4634 51.9698 25.61 52.4121 25.61C52.5596 25.61 52.707 25.5733 52.8544 25.5367C53.4441 25.3535 54.0707 24.9139 54.0707 24.9139C54.0707 24.9139 54.8448 24.9871 55.029 24.8039C55.2502 24.6208 55.5819 24.1811 55.3976 23.9613C55.2133 23.7414 54.771 23.6315 54.771 23.6315C54.771 23.6315 53.6653 24.1078 53.5179 24.0345C53.3336 23.9613 54.6973 22.4225 53.8864 21.7264C53.0387 21.0669 51.417 21.1768 51.417 21.1768Z" fill="#FDD6C5"/>
<path d="M51.5643 20.554C51.5643 20.554 49.7952 20.5174 50.1269 20.7006C50.4586 20.9204 51.8224 21.9096 52.4489 22.0928C53.0755 22.276 54.513 22.9721 54.513 22.9721C54.513 22.9721 56.7982 24.5842 57.2405 24.4743C57.6459 24.3644 57.0562 22.276 55.3607 21.7997C53.6284 21.3601 51.5643 20.554 51.5643 20.554Z" fill="#006218"/>
<path d="M55.9136 19.4914C55.9136 19.4914 54.4761 18.7587 53.4072 19.0151C52.3015 19.235 51.6012 20.5539 51.6012 20.5539C51.6012 20.5539 54.2918 21.7264 55.1764 22.3492C56.0979 22.972 56.4296 23.4117 56.835 23.1186C57.2036 22.8255 57.8671 20.6272 55.9136 19.4914Z" fill="#1F8548"/>
<path d="M56.8719 29.5303C56.8719 29.5303 56.061 31.179 56.8719 32.7544C57.6828 34.3299 58.3831 37.0044 58.3831 37.0044C58.3831 37.0044 53.6653 38.8363 53.5916 38.9463C53.5178 39.0562 53.7021 39.5691 53.6653 40.2652C53.6284 40.9247 59.8206 40.082 60.6314 38.2501C61.4423 36.4549 60.7052 29.3105 59.2677 28.2846C57.8671 27.2587 56.8719 29.5303 56.8719 29.5303Z" fill="#07672E"/>
<path d="M54.4762 41.3277L46.3305 37.6639L38.7378 31.6553L46.5885 35.2458L54.4762 41.3277Z" fill="#D4FFFF"/>
<path d="M54.1444 41.9137C53.9233 42.1336 53.6284 42.1702 53.223 41.8771L45.4828 35.9051L46.4042 35.209L54.0707 41.1077C54.4393 41.4008 54.5499 41.584 54.1444 41.9137Z" fill="#02701D"/>
<path d="M46.1831 35.0259C46.8466 35.0259 45.8514 35.8319 45.446 35.9418C45.0774 36.0151 45.5197 35.0259 46.1831 35.0259Z" fill="#015816"/>
<path d="M46.5148 38.3966C46.2936 38.6165 45.9988 38.6531 45.5933 38.36L37.8531 32.388L38.7746 31.6919L46.4411 37.5906C46.8096 37.8837 46.9202 38.0303 46.5148 38.3966Z" fill="#02701D"/>
<path d="M38.5904 31.5088C39.2538 31.5088 38.2586 32.3148 37.8532 32.4247C37.4478 32.498 37.8901 31.5088 38.5904 31.5088Z" fill="#015816"/>
<path d="M53.9601 38.8363C53.8495 38.763 53.5547 38.4699 53.3335 38.3967C53.0755 38.3234 52.0435 37.9936 52.0435 37.9936C52.0435 37.9936 51.4538 38.0303 51.3063 38.0669C51.1589 38.1036 50.3849 37.7738 50.2006 37.8471C50.0532 37.9204 50.09 38.0669 50.2375 38.1402C50.3849 38.2135 51.1221 38.8363 51.1221 38.8363L51.6012 38.9462C51.6012 38.9462 51.3801 39.4225 51.3063 39.4592C51.2326 39.4592 50.348 39.6423 50.348 39.6423C50.348 39.6423 49.9426 39.4958 49.8689 39.6423C49.7952 39.7889 50.09 40.0454 50.09 40.0454C50.09 40.0454 50.09 40.2652 50.2743 40.3385C50.4586 40.4117 50.4955 40.4484 50.4955 40.4484C50.4955 40.4484 50.4955 40.6682 50.6429 40.7415C50.7903 40.8148 51.0115 40.9247 51.0115 40.9247C51.0115 40.9247 51.0852 41.0712 51.7855 41.1079C52.4858 41.1445 52.8544 40.5217 53.1492 40.3385C53.4441 40.1553 53.6653 40.3385 53.8864 40.3385C54.0707 40.3751 54.513 39.276 53.9601 38.8363Z" fill="#EEBAA6"/>
<path d="M42.5341 35.9785C42.5341 35.9785 42.0918 36.3815 42.7184 36.638C43.087 36.7846 43.7504 36.3815 43.7136 36.4182C43.6767 36.4548 43.6399 36.0152 43.1239 36.0152C42.9764 35.9785 42.5341 35.9785 42.5341 35.9785Z" fill="#EEBAA6"/>
<path d="M44.3033 37.2974C44.3033 37.2974 43.9347 37.6271 44.4507 37.8103C44.7456 37.9202 45.2985 37.5905 45.2616 37.6271C45.2248 37.6637 45.1879 37.2974 44.7825 37.2974C44.6719 37.2974 44.3033 37.2974 44.3033 37.2974Z" fill="#EEBAA6"/>
<path d="M43.6768 36.9312C43.6768 36.9312 43.2713 37.2975 43.8242 37.5174C44.1559 37.6639 44.7457 37.2975 44.7088 37.2975C44.672 37.2975 44.6351 36.9312 44.1928 36.9312C44.0822 36.9312 43.6768 36.9312 43.6768 36.9312Z" fill="#EEBAA6"/>
<path d="M43.345 36.7112C43.345 36.7112 42.9396 37.0776 43.4924 37.2974C43.8242 37.4439 44.4139 37.0776 44.377 37.0776C44.3402 37.1142 44.3033 36.7112 43.861 36.7112C43.7504 36.7112 43.345 36.7112 43.345 36.7112Z" fill="#EEBAA6"/>
<path d="M54.2181 27.845C53.6652 28.2114 52.7807 28.2846 52.3752 28.2846C52.3015 28.2846 52.2278 28.2846 52.2278 28.2846L52.3752 28.3213L54.6973 28.7609L54.6236 28.248L55.2501 28.6144C55.2501 28.6144 55.6187 28.3946 55.8767 28.248C56.1347 28.0648 56.3559 27.0756 56.2822 26.6359C56.2822 26.5627 56.2453 26.526 56.2084 26.4527C55.9873 26.0497 55.3607 25.6833 55.3607 25.6833C55.3607 25.6833 55.4713 25.9032 55.4344 26.1596C55.4344 26.1963 55.4344 26.2329 55.3976 26.2696C55.287 26.526 54.9184 27.3687 54.2181 27.845Z" fill="#1F8548"/>
</g>
<defs>
<clipPath id="clip0_407_354">
<rect width="61" height="68" fill="white"/>
</clipPath>
</defs>
</svg>
