<svg width="74" height="68" viewBox="0 0 74 68" fill="none" xmlns="http://www.w3.org/2000/svg">
<path d="M13.3984 43.9835C13.3984 43.9835 12.6564 45.1985 13.2748 45.644C13.8931 46.0895 15.2536 46.373 15.6246 46.8995C15.9544 47.426 16.243 48.074 17.1087 48.317C17.9745 48.56 19.2525 48.965 19.5823 48.7625C19.9121 48.56 20.1182 47.1425 18.9639 46.0895C17.8096 45.0365 16.614 44.429 16.2842 43.7C15.9132 43.052 13.3984 43.9835 13.3984 43.9835Z" fill="#BFDDE0"/>
<path d="M13.3984 43.5379C13.3984 43.5379 12.6564 44.7529 13.2748 45.1984C13.8931 45.6439 15.2536 45.9274 15.6246 46.4539C15.9544 46.9804 16.243 47.6284 17.1087 47.8714C17.9745 48.1144 19.2525 48.5194 19.5823 48.3169C19.9121 48.1144 20.1182 46.6969 18.9639 45.6439C17.8096 44.5909 16.614 43.9834 16.2842 43.2544C15.9132 42.6064 13.3984 43.5379 13.3984 43.5379Z" fill="#006218"/>
<path d="M2.30868 45.0364C2.30868 45.0364 1.07191 46.3324 1.23682 46.9804C1.40172 47.6284 2.26746 48.5194 2.22623 49.2889C2.18501 50.0584 2.43236 50.9494 3.21565 51.3544C3.99893 51.7594 5.15325 51.8404 5.60673 51.7594C6.06022 51.6784 7.13208 51.0709 6.92595 50.4229C6.71982 49.7749 5.60673 49.9774 5.44183 48.9649C5.31815 47.9524 4.98835 46.0489 4.98835 46.0489L2.30868 45.0364Z" fill="#BFDDE0"/>
<path d="M2.4736 44.7124C2.4736 44.7124 1.23683 46.0084 1.40173 46.6564C1.56664 47.3044 2.43238 48.1954 2.39115 48.9649C2.34992 49.7344 2.59728 50.6254 3.38056 51.0304C4.16385 51.4355 5.31817 51.5165 5.77165 51.4355C6.22513 51.3545 7.09087 50.8684 6.92597 50.2204C6.71984 49.5724 5.77165 49.6534 5.64797 48.6409C5.5243 47.6284 5.19449 45.7249 5.19449 45.7249L2.4736 44.7124Z" fill="#006218"/>
<path d="M17.1912 20.6958C17.1912 20.6958 18.7165 26.1633 18.263 29.4844C17.8508 32.8054 16.9026 34.7494 16.7377 36.3694C16.614 37.9894 16.4079 43.3355 16.4079 43.3355C16.4079 43.3355 15.9132 44.753 14.5527 44.3885C13.1923 44.024 12.8212 43.8215 12.8212 43.8215C12.8212 43.8215 13.1098 36.5314 13.2747 35.1139C13.3984 33.6964 13.7282 32.8054 13.7282 32.8054C13.7282 32.8054 12.5739 26.2038 12.78 23.6118C13.0274 20.9793 17.1912 20.6958 17.1912 20.6958Z" fill="#1F8548"/>
<path d="M14.3053 23.7332C14.3053 23.7332 12.4502 35.3163 11.6257 37.0983C10.8424 38.8803 10.7187 38.9208 9.6056 39.5688C8.53374 40.1763 5.23569 46.4134 5.23569 46.4134C5.23569 46.4134 3.99892 47.3854 2.8446 46.4134C2.10254 45.8059 2.26744 44.4694 2.26744 44.4694C2.26744 44.4694 4.78221 38.7588 5.56549 38.1108C6.34878 37.4628 7.25574 36.9768 7.25574 36.9768C7.25574 36.9768 7.25574 25.3532 8.69864 22.6802C10.1415 20.0072 11.131 19.4402 11.131 19.4402L14.3053 21.2627V23.7332Z" fill="#1F8548"/>
<path d="M45.5132 21.3031C45.4307 22.7206 43.8642 29.5652 44.6062 31.5092C45.3071 33.4532 44.4413 37.5842 44.194 38.3537C44.1115 38.5967 44.1115 38.8803 44.1115 39.1233C44.1115 39.1233 44.1115 39.1233 44.1115 39.1638C44.1527 39.7713 44.3589 40.3788 44.3176 40.7433C44.2764 41.3103 43.8229 41.2698 43.2458 41.4723C42.6274 41.6748 42.5862 42.3633 42.3388 42.6873C42.0915 43.0113 40.9784 43.0113 40.36 42.9708C39.7416 42.9303 39.5767 42.1608 39.6592 41.8773C39.7004 41.7558 40.2363 41.3103 40.8135 40.8243C41.5968 40.1763 42.4625 39.4473 42.4625 39.1233C42.5037 38.5157 41.638 32.6432 41.6792 31.9952C41.7204 31.3472 39.3706 23.7736 39.7004 20.5336C40.0302 17.3341 41.3906 15.6736 41.3906 15.6736L44.9773 16.4431C44.936 16.4431 45.5956 19.8856 45.5132 21.3031Z" fill="#3A0620"/>
<path d="M44.3176 40.7433C44.2764 41.3103 43.8229 41.2698 43.2457 41.4723C42.6274 41.6748 42.5861 42.3633 42.3388 42.6873C42.0914 43.0113 39.7416 43.6189 39.1232 43.6189C38.5048 43.5784 39.5767 42.2013 39.7003 41.8773C39.7416 41.7558 40.2775 41.3103 40.8547 40.8243C40.6485 41.0673 40.5249 41.3508 40.7722 41.3913C41.2669 41.4723 43.7404 40.5813 43.9466 40.0143C44.1115 39.5283 44.1527 39.2448 44.1115 39.1638C44.1527 39.7308 44.3588 40.3383 44.3176 40.7433Z" fill="#027A1F"/>
<path d="M48.5226 42.2419C48.6051 42.7684 48.1928 43.4569 47.9454 43.7404C47.6569 44.0239 46.956 44.1454 46.5438 44.1454C46.1315 44.1454 45.8429 44.0239 45.9254 43.5379C45.9666 43.2949 46.1727 42.2014 46.3376 41.2294C46.4613 40.4194 46.585 39.6904 46.585 39.5689C46.585 39.2854 46.585 37.5439 46.1315 36.1669C45.678 34.7898 44.029 32.9268 43.4931 32.0358C42.9984 31.1448 44.2764 23.5308 44.2351 22.6398C44.2351 21.7488 43.3282 17.9417 43.3282 17.9417H43.2457C43.2457 17.9417 45.3482 14.4587 46.9148 15.2282C48.4814 15.9572 49.6769 17.9417 49.8418 19.8452C50.0067 21.7488 46.8736 31.6713 46.8736 31.6713C46.8736 31.6713 48.1928 32.7243 48.5226 33.9393C48.8524 35.1949 48.0691 36.6529 48.1928 37.7869C48.234 38.2324 48.3577 38.5159 48.4402 38.7589C48.6051 39.1234 48.7287 39.2854 48.7287 39.4474C48.8524 39.7309 48.4402 41.7559 48.5226 42.2419Z" fill="#015816"/>
<path d="M47.5332 44.4693C47.1621 44.6313 46.6262 44.8743 46.2139 44.8743C45.8017 44.8743 45.8429 44.0238 45.9254 43.5378C45.9666 43.2948 46.1727 42.2013 46.3376 41.2293C46.3376 41.2293 46.1727 42.6468 46.585 42.6873C46.9972 42.7278 48.1103 41.7963 48.3165 40.8243C48.5226 39.8523 48.4814 38.8398 48.4814 38.7588C48.6463 39.1233 48.7699 39.2853 48.7699 39.4473C48.7699 39.7308 48.6463 41.5938 48.8524 42.0798C49.141 42.6468 48.2752 44.1453 47.5332 44.4693Z" fill="#027A1F"/>
<path d="M40.8547 15.1472C40.8547 15.1472 39.2881 19.3187 39.6179 21.7082C39.9477 24.0978 40.8547 30.1728 40.8547 30.1728C40.8547 30.1728 41.5143 31.8333 44.8123 31.1043C48.1104 30.3753 48.3165 30.1728 48.3165 30.1728C48.3165 30.1728 50.5839 21.9512 50.1304 19.0757C49.6769 16.1597 46.6675 15.1067 46.6675 15.1067L40.8547 15.1472Z" fill="#027A1F"/>
<path d="M10.0591 54.3514L8.73987 53.5819V34.7493L10.0591 35.5188V54.3514Z" fill="#02701D"/>
<path d="M10.0591 54.3512L11.2959 53.7032V35.5186L10.0591 36.1666V54.3512Z" fill="#015816"/>
<path d="M32.4446 66.7848L31.1254 65.9748V49.4912L32.4446 50.2607V66.7848Z" fill="#02701D"/>
<path d="M33.6813 65.9748L32.4446 66.7848V50.2607L33.6813 49.4912V65.9748Z" fill="#015816"/>
<path d="M55.7783 53.5412L54.4591 52.7717V35.1541L55.7783 35.9236V53.5412Z" fill="#02701D"/>
<path d="M57.0151 52.7717L55.7783 53.5412V35.9236L57.0151 35.1541V52.7717Z" fill="#015816"/>
<path d="M32.4033 50.3419L7.66797 35.7618V34.9518L58.293 34.0203V35.0733L32.4033 50.3419Z" fill="#006218"/>
<path d="M32.4858 49.2483L7.66797 34.9517L33.7226 19.6021L58.293 34.0202L32.4858 49.2483Z" fill="#068E3D"/>
<path d="M50.2953 31.9952L37.3505 39.3257L20.8602 29.9702L33.8051 22.5991L50.2953 31.9952Z" fill="#D4FFFF"/>
<path d="M33.434 29.7676L28.6519 27.0541L33.434 24.3406L38.2162 27.0541L33.434 29.7676ZM29.6 27.0541L33.434 29.2411L37.268 27.0541L33.434 24.8671L29.6 27.0541Z" fill="#222222"/>
<path d="M32.8981 25.7582L31.2079 26.6897L29.7238 25.8797L31.414 24.9077L32.8981 25.7582Z" fill="#D4FFFF"/>
<path d="M37.1443 37.6653L23.3337 29.8488L28.1159 27.1353L41.9265 34.9518L37.1443 37.6653ZM24.2819 29.8488L37.1443 37.1388L40.9783 34.9518L28.1159 27.6618L24.2819 29.8488Z" fill="#222222"/>
<path d="M38.546 28.3908L38.3399 28.5123L36.7733 27.5808L36.9382 27.4998L38.546 28.3908Z" fill="#222222"/>
<path d="M42.0914 34.6681L34.5471 30.3751L39.3705 27.6211L46.9148 31.8736L42.0914 34.6681ZM35.4953 30.3751L42.0914 34.1011L45.9666 31.9141L39.3705 28.1881L35.4953 30.3751Z" fill="#222222"/>
<path d="M38.1338 28.6337L37.9689 28.7147L36.3611 27.8236L36.5672 27.7021L38.1338 28.6337Z" fill="#222222"/>
<path d="M37.7627 28.8361L37.5566 28.9576L35.99 28.0261L36.1549 27.9451L37.7627 28.8361Z" fill="#222222"/>
<path d="M27.5388 28.7956L25.8485 29.7676L24.3644 28.9171L26.0546 27.9451L27.5388 28.7956Z" fill="#D4FFFF"/>
<path d="M27.5388 28.9982L25.8074 29.9702L24.3232 29.1197L26.0547 28.1477L27.5388 28.9982Z" fill="#D4FFFF"/>
<path d="M37.3505 29.0792L37.1856 29.1602L35.5778 28.2692L35.7839 28.1477L37.3505 29.0792Z" fill="#222222"/>
<path d="M36.9795 29.2816L36.7734 29.4031L35.2068 28.4716L35.3717 28.3906L36.9795 29.2816Z" fill="#222222"/>
<path d="M36.5671 29.5248L36.4022 29.6058L34.7944 28.7148L35.0006 28.5933L36.5671 29.5248Z" fill="#222222"/>
<path d="M28.1984 31.1042L26.4669 32.0762L24.9828 31.2662L26.7143 30.2942L28.1984 31.1042Z" fill="#D4FFFF"/>
<path d="M32.1561 33.2507L30.4246 34.2227L28.9817 33.3722L30.6719 32.4001L32.1561 33.2507Z" fill="#D4FFFF"/>
<path d="M23.7047 32.6025L23.746 36.8551L14.2228 37.2196L14.1404 32.967L23.7047 32.6025Z" fill="#D4FFFF"/>
<path d="M17.727 34.9516L14.9649 35.0731L14.9237 33.4936L17.6858 33.3721L17.727 34.9516ZM15.2123 34.8706L17.4385 34.7896L17.3972 33.5341L15.2123 33.6151V34.8706Z" fill="#222222"/>
<path d="M15.5009 33.939V34.506L14.6351 34.5465V33.9795L15.5009 33.939Z" fill="#D4FFFF"/>
<path d="M22.839 36.4096L14.8412 36.7336V35.1541L22.839 34.8301V36.4096ZM15.1298 36.5716L22.5504 36.2881L22.5092 35.0326L15.0885 35.3161L15.1298 36.5716Z" fill="#222222"/>
<path d="M18.4691 33.696V33.7365L17.5621 33.777V33.7365L18.4691 33.696Z" fill="#222222"/>
<path d="M22.7153 34.7489L18.3454 34.9109L18.3042 33.3314L22.6741 33.1694L22.7153 34.7489ZM18.634 34.7489L22.4268 34.5869L22.3855 33.2909L18.5928 33.4529L18.634 34.7489Z" fill="#222222"/>
<path d="M18.4691 33.8176V33.8581L17.5621 33.8986V33.8581L18.4691 33.8176Z" fill="#222222"/>
<path d="M18.4691 33.939V34.02L17.5621 34.0605V33.9795L18.4691 33.939Z" fill="#222222"/>
<path d="M15.5008 35.7209L15.542 36.288L14.6763 36.3285V35.7615L15.5008 35.7209Z" fill="#D4FFFF"/>
<path d="M15.6245 35.7615V36.3285L14.7588 36.369V35.802L15.6245 35.7615Z" fill="#D4FFFF"/>
<path d="M18.4691 34.0605V34.1415L17.5621 34.182V34.101L18.4691 34.0605Z" fill="#222222"/>
<path d="M18.4691 34.1821V34.2631L17.5621 34.3036V34.2226L18.4691 34.1821Z" fill="#222222"/>
<path d="M18.4691 34.344V34.3845L17.5621 34.425V34.344H18.4691Z" fill="#222222"/>
<path d="M16.9025 36.2476V36.8146H16.078L16.0367 36.2881L16.9025 36.2476Z" fill="#D4FFFF"/>
<path d="M19.1287 36.126V36.693H18.3042L18.2629 36.126H19.1287Z" fill="#D4FFFF"/>
<path d="M40.6072 40.8242L31.4963 42.6062L27.4974 36.0452L36.6083 34.2227L40.6072 40.8242Z" fill="#D4FFFF"/>
<path d="M33.5164 37.5842L32.3621 35.6807L35.7426 35.0327L36.8969 36.9362L33.5164 37.5842ZM32.8155 35.8022L33.7637 37.3412L36.4434 36.8147L35.4952 35.2757L32.8155 35.8022Z" fill="#222222"/>
<path d="M34.918 35.5997L33.7225 35.8427L33.3514 35.2352L34.547 35.0327L34.918 35.5997Z" fill="#D4FFFF"/>
<path d="M32.0735 41.7962L28.7343 36.2881L32.1148 35.6401L35.454 41.1482L32.0735 41.7962ZM29.1877 36.4096L32.3209 41.5532L35.0006 41.0267L31.8674 35.8831L29.1877 36.4096Z" fill="#222222"/>
<path d="M36.5258 37.5841L36.3609 37.6246L35.9899 36.9766H36.1135L36.5258 37.5841Z" fill="#222222"/>
<path d="M35.6601 41.0266L33.8049 38.0296L37.1854 37.3816L38.9994 40.3786L35.6601 41.0266ZM34.2584 38.1511L35.8662 40.7836L38.5871 40.2571L36.9793 37.6246L34.2584 38.1511Z" fill="#222222"/>
<path d="M36.2372 37.6651H36.0723L35.7013 37.0576L35.825 37.0171L36.2372 37.6651Z" fill="#222222"/>
<path d="M35.9487 37.7056L35.825 37.7461L35.4127 37.0981L35.5776 37.0576L35.9487 37.7056Z" fill="#222222"/>
<path d="M31.1253 36.3287L29.9297 36.5717L29.5587 36.0047L30.7955 35.7617L31.1253 36.3287Z" fill="#D4FFFF"/>
<path d="M31.0429 36.4503L29.8473 36.6933L29.4763 36.0858L30.6719 35.8428L31.0429 36.4503Z" fill="#D4FFFF"/>
<path d="M35.6601 37.7462L35.5364 37.7867L35.1654 37.1387H35.2891L35.6601 37.7462Z" fill="#222222"/>
<path d="M35.4128 37.8272H35.2479L34.8768 37.2197L35.0005 37.1792L35.4128 37.8272Z" fill="#222222"/>
<path d="M35.1242 37.8677L35.0005 37.9082L34.5883 37.2602L34.7532 37.2197L35.1242 37.8677Z" fill="#222222"/>
<path d="M30.5069 37.5438L29.2701 37.7868L28.9403 37.1793L30.1359 36.9363L30.5069 37.5438Z" fill="#D4FFFF"/>
<path d="M31.4964 39.0421L30.3008 39.2851L29.9298 38.7181L31.1666 38.4751L31.4964 39.0421Z" fill="#D4FFFF"/>
<path d="M46.9972 37.8678L52.3977 35.0328V34.4253L43.1219 35.2353V35.8833L46.9972 37.8678Z" fill="#19623A"/>
<path d="M46.9972 37.2197L52.3977 34.4252L48.5225 32.4407L43.1219 35.2352L46.9972 37.2197Z" fill="#2B958E"/>
<path d="M46.9147 37.3412V37.6652L43.1219 35.7617V35.3972L46.9147 37.3412Z" fill="#FAFAFA"/>
<path d="M32.2385 46.2514L37.639 43.4568V42.8088L28.3633 43.6593V44.2669L32.2385 46.2514Z" fill="#01662A"/>
<path d="M32.2385 45.6438L37.639 42.8087L33.7638 40.8242L28.3633 43.6592L32.2385 45.6438Z" fill="#2AA85D"/>
<path d="M32.156 45.7248V46.0488L28.3633 44.1453V43.7808L32.156 45.7248Z" fill="#FAFAFA"/>
<path d="M63.0341 50.5443C63.0341 50.5443 61.4263 51.7593 60.643 51.9618C59.9009 52.1643 58.1282 52.1643 58.2931 52.7718C58.458 53.3793 60.4369 53.5818 61.4675 53.7844C62.5394 53.9464 63.6524 53.2983 64.6419 53.4198C65.5901 53.5413 66.497 53.8653 66.3733 52.6098C66.2084 51.3543 65.5488 50.3823 65.5488 50.3823L63.0341 50.5443Z" fill="#015816"/>
<path d="M62.8691 27.1352C62.8691 27.1352 62.1683 33.6557 62.8691 36.6932C63.5699 39.7307 64.1883 41.3103 63.5699 45.3603C62.9103 49.4103 62.5805 50.5038 62.5805 50.5038C62.5805 50.5038 63.2401 51.7998 64.5594 51.5973C65.8786 51.3948 66.0435 51.0708 66.0435 51.0708C66.0435 51.0708 68.517 45.1578 68.146 41.9178C67.7337 38.6777 67.7337 38.0702 68.1872 33.9392C68.6407 29.8082 68.7644 27.6212 67.6925 27.0947C66.6206 26.6086 62.8691 27.1352 62.8691 27.1352Z" fill="#037620"/>
<path d="M70.6608 52.5289C70.6608 52.5289 69.9188 54.5134 69.2591 54.7564C68.5583 55.0399 67.6926 56.579 68.0224 56.9435C68.3522 57.308 69.96 57.875 71.0319 57.1055C72.1037 56.3359 72.3511 54.6754 72.7221 54.1084C73.0931 53.5009 73.4229 53.4199 73.4229 52.8934C73.4229 52.3669 72.887 51.5974 72.887 51.5974L70.6608 52.5289Z" fill="#015816"/>
<path d="M60.5192 15.1877C60.5192 15.1877 60.849 14.0537 59.9833 14.6207C59.1175 15.1877 58.0457 16.3622 58.0044 17.3747C57.9632 18.3872 57.6334 19.4402 57.2624 20.7767C56.8501 22.1132 56.273 23.5712 56.273 23.5712C56.273 23.5712 55.9019 23.8142 55.0774 25.5963C54.2529 27.3783 53.0986 30.6993 53.0986 30.6993L50.79 30.0108L49.6769 30.1323L47.9042 30.6993C47.9042 30.6993 47.8217 31.0233 48.1927 31.0233C48.5638 31.0233 49.4707 30.8208 49.4707 30.8208L50.2953 31.0233L49.0585 31.2663C49.0585 31.2663 47.9866 31.3473 48.0278 31.4688C48.0691 31.5903 48.3164 31.7523 48.6875 31.7118C49.0173 31.7118 50.9549 31.5498 50.9549 31.5498L51.532 31.9548C51.532 31.9548 50.8724 32.2788 50.79 32.2788C50.6663 32.2788 50.2128 32.1573 49.9242 32.2788C49.6356 32.4003 49.4707 32.7648 49.883 32.8053C50.254 32.8458 50.8724 32.9268 51.1198 32.9673C51.3671 33.0078 52.439 32.8053 52.7276 32.7648C53.0161 32.7648 54.1705 32.0358 54.459 31.6713C54.7476 31.2663 57.4685 27.4188 57.7159 26.4063C58.0044 25.3938 58.2518 24.7457 58.2518 24.7457C58.2518 24.7457 60.107 21.1007 61.0139 19.0352C61.8384 17.0507 60.5192 15.1877 60.5192 15.1877Z" fill="#FDD6C5"/>
<path d="M58.2931 15.3901C58.2931 15.3901 57.3862 17.6581 57.4686 18.6301C57.5511 19.5616 56.3143 23.3281 55.7371 23.8141C55.16 24.3001 53.346 29.6867 53.346 29.6867L52.8513 30.6992C52.8513 30.6992 52.0681 31.9952 53.346 32.0357C54.624 32.1167 54.5416 31.5092 54.5416 31.5092L54.8302 31.1447C54.8302 31.1447 55.7784 30.6587 56.1082 30.1727C56.438 29.6867 58.2931 26.0012 58.458 25.1507C58.6229 24.3001 60.1071 21.6676 61.014 19.7641C61.8798 17.8606 61.7973 14.1346 60.272 14.2561C58.6642 14.4181 58.2931 15.3901 58.2931 15.3901Z" fill="#A0D03B"/>
<path d="M65.2189 29.8892C65.2189 29.8892 65.054 42.4038 67.2802 44.3883C69.4652 46.4133 70.4546 52.0429 70.4546 52.2454C70.4546 52.4479 70.5783 53.3389 71.5677 53.0959C72.5571 52.8529 73.093 51.7999 73.093 51.6379C73.093 51.4759 73.5877 47.3448 72.7632 45.7653C71.9799 44.1858 70.5783 42.3633 70.5783 42.2418C70.5783 42.1203 73.2992 31.2662 71.3616 28.7552C69.4239 26.2442 68.2284 25.9202 68.2284 25.9202C68.2284 25.9202 65.2189 25.9607 65.2189 29.8892Z" fill="#1F8548"/>
<path d="M59.2413 15.7546C59.2413 15.7546 58.7878 20.2906 59.5299 22.1536C60.2719 24.0167 62.6218 26.9732 62.5806 27.9452C62.5806 28.9172 64.7655 29.3627 66.9093 28.9982C69.053 28.6742 70.331 27.4997 70.331 27.4997C70.331 27.4997 69.424 23.1662 67.8987 20.3716C66.3733 17.6176 61.1789 11.2186 59.2413 15.7546Z" fill="#1F8548"/>
<path d="M60.7254 17.82C60.7254 17.82 60.2719 18.5896 60.2306 18.9136C60.1894 19.2781 60.2719 19.6021 60.2719 19.6021C60.2719 19.6021 60.1482 21.1006 60.1482 22.2751C60.1482 23.4091 60.1482 28.1071 60.1482 28.1071L60.6017 28.7956L60.9727 27.9451C60.9727 27.9451 60.9315 23.1256 60.849 22.2751C60.7666 21.4246 60.6429 19.6831 60.6429 19.6831C60.6429 19.6831 61.5911 19.0756 61.7972 18.6301C61.9621 18.225 61.4674 17.334 60.7254 17.82Z" fill="#006218"/>
<path d="M62.6217 14.4585C62.6217 14.4585 60.6841 15.2685 60.1482 16.524C59.9833 16.8885 60.2719 18.549 60.2719 18.549L61.2613 17.982L61.3025 19.197C61.3025 19.197 64.9304 18.5895 64.3532 16.767C63.8585 15.1875 62.6217 14.4585 62.6217 14.4585Z" fill="#A0D03B"/>
<path d="M63.7348 21.0196C63.7348 21.0196 63.3638 22.2751 64.312 23.2876C65.1777 24.3001 67.1978 27.9452 67.1978 27.9452C67.1978 27.9452 66.3321 27.5401 65.5075 27.7427C64.683 27.9452 62.2095 28.5527 61.9209 28.5527C61.6323 28.5527 61.2613 27.9857 60.7254 27.6617C60.2307 27.3376 58.9527 26.8111 58.8702 26.6896C58.7878 26.5681 58.0457 26.3656 58.0457 26.6896C58.0869 27.0541 58.9939 27.2161 59.1176 27.3781C59.2412 27.5401 59.5298 28.1477 59.5298 28.1477C59.5298 28.1477 58.1282 28.5932 57.8808 28.6742C57.6334 28.7957 55.5309 28.5122 55.6958 28.8362C55.8608 29.1602 56.4791 29.1602 56.4791 29.1602C56.4791 29.1602 56.3967 29.5652 56.7265 29.6867C57.0563 29.8082 57.3449 29.9297 57.4273 29.9297C57.5098 29.9297 57.5922 29.9297 57.5922 29.9297C57.5922 29.9297 58.1694 30.0512 58.2106 29.9702C58.2518 29.9297 58.3343 30.1727 58.458 30.2132C58.5816 30.2537 59.5711 30.1727 59.8596 30.0512C60.107 29.9297 61.1376 29.7272 61.3438 29.7677C61.5499 29.8082 66.7031 30.2132 68.2697 30.1322C69.8362 30.0917 70.0836 29.4437 70.0836 29.4437C70.0836 29.4437 69.6713 26.1226 69.1354 24.9076C68.5995 23.6926 68.4758 20.6146 66.868 20.1286C65.3426 19.7236 64.2296 19.8856 63.7348 21.0196Z" fill="#FDD6C5"/>
<path d="M63.8998 19.9666C63.5287 20.1286 62.6218 21.3841 63.2401 22.5586C63.8998 23.7332 67.1978 27.9452 67.1978 27.9452C67.1978 27.9452 66.7031 27.4592 65.8786 27.5402C65.0953 27.6212 62.8279 28.3907 62.8279 28.3907L61.8385 28.5122C61.8385 28.5122 62.3744 28.7552 62.0446 29.2007C61.6736 29.6462 61.5087 29.8487 61.5087 29.8487L62.663 29.9702C62.663 29.9702 63.2401 30.4967 64.0234 30.4967C64.8479 30.4562 69.5064 31.0232 70.166 29.8487C70.8257 28.7147 69.5889 24.7052 69.3415 24.3002C69.0942 23.8952 68.517 18.1036 63.8998 19.9666Z" fill="#A0D03B"/>
<path d="M59.571 15.7951C59.571 15.8356 61.0552 17.6176 61.2613 18.0226C61.4674 18.4276 62.8279 17.0101 63.1577 16.4836C63.4875 15.9166 63.0752 15.2281 62.9928 15.1066C62.9103 14.9851 62.7042 14.2561 62.7042 14.2561L59.571 15.7951Z" fill="#EEBAA6"/>
<path d="M58.6641 12.3527C58.6641 12.3122 58.4168 11.4212 58.4168 11.4212C58.4168 11.4212 57.551 10.6922 58.9939 10.1657C60.4368 9.63915 61.8797 9.03165 63.5287 10.7327C65.1778 12.4337 63.5287 14.3372 62.9104 14.7422C62.292 15.1472 61.014 14.9852 61.014 14.9852L59.736 14.9042C59.736 14.8637 58.6641 12.3527 58.6641 12.3527Z" fill="#000405"/>
<path d="M58.4167 11.4211C58.4167 11.4211 57.7984 12.4336 57.7571 12.7982C57.7571 13.1627 57.922 13.2032 57.8396 13.5272C57.7571 13.8512 57.2212 14.4182 57.2212 14.5802C57.2212 14.7827 57.7159 14.9852 57.7159 14.9852C57.7159 14.9852 57.7159 15.3092 57.7983 15.3497C57.8808 15.3902 57.8808 15.3902 57.8808 15.3902C57.8808 15.3902 57.7571 15.5117 57.7983 15.5522C57.8808 15.5927 58.0045 15.7142 58.0045 15.7547C58.0045 15.7952 57.8396 16.1597 57.922 16.2407C57.9633 16.3217 58.4992 16.5647 58.7465 16.5647C58.9939 16.5647 60.2307 16.4027 60.5192 16.2812C60.7666 16.1597 61.385 15.3497 61.385 15.3497C61.385 15.3497 61.3438 15.7952 61.7972 15.5927C62.2507 15.3497 62.9928 14.2967 62.5805 14.0942C62.1683 13.8917 61.4262 14.0942 61.3438 14.0942C61.3025 14.0942 60.6841 14.7017 60.3956 14.2157C60.0658 13.7297 60.1482 12.9602 59.8596 12.6362C59.5298 12.2311 58.4167 11.4211 58.4167 11.4211Z" fill="#FDD6C5"/>
<path d="M37.0619 7.85712C37.0619 7.85712 36.2786 7.53311 35.7427 8.62662C35.2068 9.72013 35.0419 14.3372 34.3823 15.0662C33.6814 15.7952 30.9193 19.3997 30.9193 19.3997C30.9193 19.3997 29.0229 20.7362 28.9405 20.8172C28.858 20.8982 26.7968 21.5867 26.9617 21.7487C27.1266 21.9107 28.116 21.6677 28.4046 21.5462C28.6931 21.4652 29.1054 21.2222 29.1054 21.2222C29.1054 21.2222 28.4046 21.8702 28.3633 21.8702C28.3221 21.8702 28.1572 23.2067 28.1572 23.2877C28.116 23.3687 28.4046 23.4092 28.4458 23.2877C28.487 23.1662 28.4046 23.4092 28.6107 23.3687C28.8168 23.3282 29.0642 23.1662 29.1466 22.8422C29.2291 22.5182 29.9299 22.1132 29.9711 22.0727C30.0124 22.0322 29.2703 23.2472 29.0642 23.5712C28.858 23.8952 28.7344 24.0167 28.8993 24.0572C29.0229 24.0977 29.2291 24.0167 29.4764 23.7737C29.6825 23.5307 30.5895 22.2752 30.7544 22.1537C30.8781 22.0322 31.2903 21.6272 31.3316 21.5867C31.3316 21.5057 31.2079 22.1132 31.3316 22.3157C31.4552 22.5182 31.043 22.8017 31.0842 23.1662C31.1254 23.5307 31.1254 23.7332 31.2903 23.5307C31.4553 23.3282 31.7026 22.8422 31.8263 22.8017C31.9087 22.7207 32.2385 21.3437 32.2385 21.3032C32.2385 21.2627 32.1561 19.9667 32.1561 19.9667C32.1561 19.9667 35.7015 17.1317 36.0313 16.7267C36.4023 16.2407 37.0619 14.9852 37.2681 14.5397C37.4742 14.0942 37.9689 11.0566 38.1338 9.72013C38.2575 8.34312 37.0619 7.85712 37.0619 7.85712Z" fill="#FDD6C5"/>
<path d="M37.0619 7.49251C37.0207 7.49251 36.1961 7.53301 35.7427 8.18102C35.2892 8.82902 34.712 14.6611 34.4647 14.9041C34.2173 15.1471 34.5883 17.1316 36.1549 17.0101C37.7215 16.8886 37.5978 15.1471 37.5978 15.1471C37.5978 15.1471 38.5048 11.7045 38.7521 10.6515C39.0407 9.55803 38.546 7.33051 37.0619 7.49251Z" fill="#1F8548"/>
<path d="M40.1126 6.96606C40.1126 6.96606 39.9477 6.96606 39.6592 7.00656C38.6285 7.08756 36.2787 7.37107 36.4436 8.34307C36.6497 9.55808 37.7628 10.6921 37.8452 12.0691C37.9277 13.4461 37.7215 14.4991 38.6285 14.8231C39.5355 15.1876 39.6592 15.1876 39.6592 15.1876C39.6592 15.1876 41.2669 16.2406 41.3082 16.4431C41.3494 16.6051 43.287 18.0631 44.8124 17.7391C46.3377 17.4151 46.9973 15.1876 46.9973 15.1876C46.9973 15.1876 45.2658 12.7171 45.2658 12.2311C45.2658 11.7451 47.7806 9.31508 45.1009 8.22157C42.4213 7.12807 40.1126 6.96606 40.1126 6.96606Z" fill="#A8DE68"/>
<path d="M39.1644 6.31808C39.1644 6.31808 38.0926 6.60158 37.8864 7.69509C37.6391 8.7886 38.175 10.4896 39.0407 10.5301C39.9065 10.5706 40.1538 10.1251 40.1538 10.1251C40.1538 10.1251 41.102 11.4616 41.9678 10.9756C42.8335 10.5301 43.4107 8.01909 42.6274 7.08758C41.8029 6.19658 39.1644 6.31808 39.1644 6.31808Z" fill="#1F8548"/>
<path d="M44.0703 10.9755C44.0703 11.0565 44.565 13.122 45.0185 14.256C45.5132 15.3901 45.8018 17.6176 45.8018 17.6176C45.8018 17.6176 46.3377 21.4651 46.7912 22.5586C47.2447 23.6521 47.6157 24.2191 47.6157 24.2191C47.6157 24.2191 47.8631 25.3936 48.1104 25.7581C48.3578 26.1226 49.1411 27.4996 49.2647 27.3781C49.3884 27.2566 48.8937 25.9606 48.8937 25.9606C48.8937 25.9606 50.0068 27.5401 50.2954 27.6211C50.584 27.7021 50.5427 27.5401 50.5427 27.6211C50.5427 27.7021 50.8725 27.8641 50.955 27.6616C51.0374 27.4591 50.1305 25.5556 50.1305 25.5556C50.1305 25.5556 51.0787 27.2971 51.2023 27.3376C51.326 27.3781 51.5321 27.4996 51.4085 26.9731C51.2848 26.4466 50.0893 24.1381 50.0893 24.1381C50.0893 24.1381 50.4603 24.3406 50.6664 24.4621C50.8725 24.5836 51.2023 24.9076 51.4497 24.8671C51.6558 24.8671 51.6558 24.6241 51.6558 24.6241C51.6558 24.6241 50.9962 24.0571 50.955 23.9356C50.9138 23.8141 50.2542 23.3686 50.2542 23.3686L48.6464 23.0446C48.6464 23.0446 48.6051 19.9261 48.5227 19.0351C48.4402 18.1441 47.6982 17.4151 47.6982 16.7671C47.6982 16.1191 46.75 13.689 46.9973 12.5145C47.2035 11.34 46.6263 8.748 45.6369 8.829C44.6062 8.8695 44.0703 9.47701 44.0703 10.9755Z" fill="#FDD6C5"/>
<path d="M44.3176 8.58611C44.1527 8.66711 43.6992 10.2466 43.8641 11.5021C44.029 12.7171 45.2246 15.2282 45.1834 16.6052C45.1834 17.9822 45.1834 17.9822 45.9666 18.4277C46.7499 18.8732 47.9455 17.9417 48.0692 17.0507C48.1928 16.2002 47.0385 14.9042 47.3271 12.8386C47.6157 10.7326 46.9148 7.0876 44.3176 8.58611Z" fill="#1F8548"/>
<path d="M38.8759 8.66703L38.0514 5.99401C38.0514 5.99401 41.267 5.6295 41.3907 6.27751C41.5143 6.92551 41.638 7.81652 41.7617 8.01902C41.8854 8.22152 41.638 9.47703 41.0609 10.0035C40.4425 10.53 38.8759 9.76053 38.8759 8.66703Z" fill="#EEBAA6"/>
<path d="M38.9584 5.99404H38.0514C38.0514 5.99404 38.0514 6.48005 37.3918 6.43955C36.7322 6.39905 36.5261 5.87254 36.5261 5.87254C36.5261 5.87254 36.0726 6.15605 35.7015 5.75104C35.3305 5.34604 35.5779 4.98154 35.5779 4.98154C35.5779 4.98154 35.0007 4.73854 35.1656 4.29303C35.2893 3.84753 35.6191 3.84753 35.6191 3.84753C35.6191 3.84753 35.0419 3.40203 35.2481 2.95652C35.4954 2.51102 35.9077 2.51102 35.9077 2.51102C35.9077 2.51102 35.5779 2.06552 36.0314 1.53901C36.4436 1.01251 36.8559 1.25551 36.8559 1.25551C36.8559 1.25551 36.691 0.688505 37.1444 0.486004C37.5979 0.283502 37.8453 0.486004 37.8453 0.486004C37.8453 0.486004 37.8453 0.121501 38.1751 0.0405003C38.5461 -0.0810006 38.7522 0.283502 38.7522 0.283502C38.7522 0.283502 38.8347 0 39.247 0C39.6592 0 39.6592 0.324002 39.6592 0.324002C39.6592 0.324002 39.9066 0.0810006 40.4013 0.324002C40.8548 0.526504 40.8548 0.810006 40.8548 0.810006C40.8548 0.810006 41.1021 0.648005 41.4319 0.810006C41.7617 0.972007 41.638 1.33651 41.638 1.33651C41.638 1.33651 42.174 1.21501 42.4626 1.45801C42.7511 1.70101 42.3801 2.14652 42.3801 2.14652C42.3801 2.14652 42.916 2.30852 42.916 2.59202C42.916 2.87552 42.5862 2.95652 42.5862 2.95652C42.5862 2.95652 42.6687 3.48303 42.5038 3.68553C42.2976 3.88803 41.9266 4.09053 41.9266 4.09053L38.9584 5.99404Z" fill="#000405"/>
<path d="M42.174 3.11852C42.174 3.11852 42.7099 3.88802 42.6274 4.29303C42.545 4.69803 42.4213 4.61703 42.545 4.86003C42.6687 5.10303 42.8748 5.26503 42.8748 5.58904C42.8748 5.91304 42.6687 6.27754 42.7099 6.64204C42.7511 7.00655 42.6274 7.49255 42.2564 7.65455C41.8854 7.81655 41.7205 8.18106 40.9372 7.97855C40.1539 7.73555 39.1645 7.61405 38.8759 7.12805C38.5873 6.64204 38.5873 6.39904 38.5873 6.39904C38.5873 6.39904 37.7216 6.27754 37.5155 5.91304C37.3093 5.54854 37.0208 4.73853 37.5155 4.77903C38.0102 4.77903 38.2988 5.26503 38.2988 5.26503C38.2988 5.26503 39.082 5.50804 39.6592 5.14353C40.2364 4.77903 39.7829 3.88802 40.5249 3.68552C41.267 3.48302 41.4319 3.80702 41.7205 3.48302C42.0091 3.15902 41.4319 2.55151 41.4319 2.55151L42.174 3.11852Z" fill="#FDD6C5"/>
<path d="M41.3494 10.8135C41.3494 10.8135 40.6898 12.798 40.6486 14.013C40.6074 15.1875 41.7204 15.7545 41.7204 15.7545C41.7204 15.7545 40.8547 14.742 40.8959 14.013C40.8959 13.1625 41.3494 10.8135 41.3494 10.8135Z" fill="#59AD9C"/>
<path d="M20.077 12.1499L20.8602 12.0284C20.8602 12.0284 21.7672 11.7044 22.5505 13.3244C23.375 14.9849 22.5093 16.5644 22.5505 17.2124C22.5917 17.8604 22.8803 20.331 22.8803 20.331C22.8803 20.331 23.7873 21.546 23.4575 23.2875C23.1276 25.029 23.5399 27.7425 23.5399 27.7425C23.5399 27.7425 25.3126 27.054 25.3126 27.0945C25.3538 27.1755 26.3845 26.73 26.6318 26.8515C26.9204 27.0135 27.6212 27.2565 27.7861 27.297C27.951 27.3375 28.5282 27.1755 28.487 27.459C28.4458 27.7425 27.9923 27.702 27.8274 27.702C27.6625 27.7425 27.4976 27.864 26.838 28.107C26.1783 28.35 25.6012 28.674 25.6012 28.674C25.6012 28.674 26.6318 29.2815 26.9204 29.403C27.1678 29.565 27.4151 29.6055 27.1678 29.7675C26.9616 29.9295 26.5906 29.808 26.1783 29.7675C25.7661 29.727 25.2714 29.484 24.6942 29.484C24.1171 29.484 22.8391 28.9575 22.6329 28.755C22.3856 28.512 21.6848 25.515 21.19 24.3405C20.6541 23.166 20.7778 20.0475 20.7778 20.0475C20.7778 20.0475 19.2937 16.2809 19.3761 15.6329C19.4586 15.0659 19.541 12.4739 20.077 12.1499Z" fill="#FDD6C5"/>
<path d="M21.1075 19.0755C21.8083 19.1565 22.3443 19.0755 22.839 18.6705C22.7153 17.7795 22.5916 17.172 22.6329 17.091C22.6741 17.01 24.5292 10.8539 19.8295 11.7044C19.8295 11.7044 19.005 13.0004 19.005 15.0254C19.005 16.0379 19.2936 17.253 19.5822 18.3465C20.0769 18.63 20.4891 18.9945 21.1075 19.0755Z" fill="#A0D03B"/>
<path d="M19.6234 19.6425C20.4067 20.0475 21.8908 20.5335 22.5504 20.0475C23.21 19.5615 22.7153 17.982 22.7153 17.982C22.7153 17.982 22.3855 18.792 21.3137 18.792C20.2418 18.792 19.3761 17.739 19.3761 17.739C19.3761 17.739 18.8401 19.2375 19.6234 19.6425Z" fill="#006218"/>
<path d="M8.28638 22.9232C8.28638 22.9232 9.68805 27.2567 11.7493 27.4592C13.8518 27.6212 17.727 24.9887 17.9744 24.4217C18.2218 23.8547 18.2218 20.5336 18.6752 19.6831C19.0875 18.8326 20.2418 19.1161 20.5304 16.8481C20.8602 14.5801 21.6023 12.8791 20.8602 12.0286C20.1181 11.1781 16.4078 10.4086 13.2747 11.8666C11.873 12.5146 11.0485 13.4866 10.595 14.4181C10.0591 15.5926 10.0179 16.7671 10.1415 17.4151C10.3477 18.5896 8.28638 22.9232 8.28638 22.9232Z" fill="#A0D03B"/>
<path d="M13.8518 12.5955C13.893 11.3805 15.3771 11.1375 15.3771 11.1375C15.3771 11.1375 17.2323 10.6515 18.0156 11.907C18.7989 13.1625 18.3454 15.0255 18.3454 15.0255L17.2323 14.094L16.7376 15.714C16.7376 15.714 14.8 15.4305 14.3053 14.337C13.8106 13.2435 13.8518 12.5955 13.8518 12.5955Z" fill="#006218"/>
<path d="M11.131 14.823C11.131 14.823 13.4396 15.3901 13.4809 17.2126C13.5633 19.0351 14.5115 23.7736 14.7588 25.0291C14.965 26.2846 15.1711 32.1977 15.1711 32.1977C15.1711 32.1977 15.8307 32.5217 16.6964 32.9672C17.5622 33.4127 17.3973 33.9797 18.2218 35.4377C18.3042 35.5592 17.9744 35.5997 17.7271 35.3162C17.4385 34.9922 16.6552 33.9392 16.6552 33.9392C16.6552 33.9392 17.2324 35.7617 17.3148 35.9237C17.3973 36.1262 17.3973 36.2072 17.1912 36.2477C17.0263 36.2882 16.9438 36.1667 16.9438 36.1667C16.9438 36.1667 17.0263 36.4502 16.6964 36.4502C16.3666 36.4502 15.2948 34.7087 15.2948 34.7087C15.2948 34.7087 15.8719 35.8832 15.9956 36.2072C16.1193 36.5312 15.8719 36.8147 15.3772 36.1262C14.8825 35.4377 14.1817 34.4252 13.8519 33.9392C13.5221 33.4532 13.5221 32.6432 13.5221 32.6432C13.5221 32.6432 12.0792 28.2691 12.2029 27.4186C12.2853 26.5681 12.6151 25.2316 12.1616 24.5026C11.7081 23.7736 10.5538 19.9261 10.5951 19.7236C10.6363 19.5211 9.64687 17.4151 9.81177 16.0786C9.97667 14.7015 11.131 14.823 11.131 14.823Z" fill="#FDD6C5"/>
<path d="M14.6764 11.9475C14.6764 11.9475 15.4185 11.1375 15.5834 10.368C15.7483 9.63896 17.8508 11.1375 17.8508 11.1375L18.8402 11.907C18.8402 11.907 17.7271 13.3245 17.3561 13.77C16.985 14.2965 14.6764 13.608 14.6764 11.9475Z" fill="#EEBAA6"/>
<path d="M16.2842 11.1375L15.3772 10.935C15.3772 10.935 14.429 9.7605 14.3053 7.28999C14.2641 6.27748 16.614 3.23996 20.0357 5.22447C21.3962 6.03448 22.097 5.34597 22.097 5.34597C22.097 5.34597 21.3549 7.00648 20.6541 8.01899C19.9533 9.0315 18.3867 10.1655 18.3867 10.1655L16.2842 11.1375Z" fill="#000405"/>
<path d="M16.4903 9.72012C16.4903 9.72012 16.1604 8.99112 15.7894 9.43662C15.4184 9.88213 15.5421 10.7326 15.8719 10.9756C16.2017 11.2186 16.5315 11.2186 16.5315 11.2186C16.5315 11.2186 16.9025 12.0691 17.2735 12.2311C17.6033 12.3931 19.2936 12.7576 19.7059 12.7981C20.1181 12.8386 20.283 12.8386 20.3655 12.4741C20.4479 12.1096 20.4479 12.0691 20.4479 12.0691C20.4479 12.0691 20.5716 11.7856 20.5716 11.6236C20.5716 11.4616 20.5716 11.2591 20.5716 11.2591C20.5716 11.2591 21.0663 11.3401 21.0663 11.0566C21.1075 10.7731 20.6953 10.3276 20.7365 10.1656C20.7365 10.0036 20.7365 9.47712 20.7365 9.47712C20.7365 9.47712 20.9426 9.11262 20.9426 8.82912C20.9426 8.50511 21.1075 7.65461 20.6953 7.61411C20.3242 7.57361 19.8708 7.69511 18.7577 7.73561C17.6446 7.77611 17.8919 8.01911 17.8919 8.01911C17.8919 8.01911 17.8095 9.23412 17.4384 9.51762C17.1086 9.88213 16.4903 9.72012 16.4903 9.72012Z" fill="#FDD6C5"/>
<path d="M10.8836 13.8105C10.8836 13.8105 9.77053 14.7016 9.44073 16.0381C9.11092 17.3746 10.5538 21.5056 10.5538 21.5056C10.5538 21.5056 11.4608 22.6801 12.5327 22.5991C13.5633 22.5181 14.3054 21.5866 14.3054 21.5866C14.3054 21.5866 13.8931 18.0226 13.2747 15.8356C12.78 13.8915 10.8836 13.8105 10.8836 13.8105Z" fill="#A0D03B"/>
<path d="M10.0591 20.9387C10.0591 20.9387 9.93544 21.0602 10.1828 21.9107C10.4301 22.7612 12.0792 23.5712 12.9449 23.4092C13.8106 23.2877 14.7588 22.8422 14.6764 21.9107C14.5939 20.9792 14.2229 20.5337 14.2229 20.5337C14.2229 20.5337 14.1405 22.0322 12.6151 21.9512C11.0898 21.8297 10.3889 20.7362 10.3889 20.7362C10.3889 20.7362 10.3889 20.2907 10.0591 20.9387Z" fill="#006218"/>
</svg>
