<?xml version="1.0" encoding="utf-8"?>
<!-- Generator: Adobe Illustrator 15.0.0, SVG Export Plug-In . SVG Version: 6.00 Build 0)  -->
<!DOCTYPE svg PUBLIC "-//W3C//DTD SVG 1.1//EN" "http://www.w3.org/Graphics/SVG/1.1/DTD/svg11.dtd">
<svg version="1.1" id="Layer_1" xmlns="http://www.w3.org/2000/svg" xmlns:xlink="http://www.w3.org/1999/xlink" x="0px" y="0px"
	 width="141.73px" height="141.73px" viewBox="0 0 141.73 141.73" enable-background="new 0 0 141.73 141.73" xml:space="preserve">
<polygon fill="#089613" points="131.519,105.223 72.009,139.583 12.496,105.223 12.496,36.506 72.008,2.148 131.519,36.506 "/>
<g>
	<g>
		<polygon fill="#86E012" points="113.728,95.613 70.864,120.361 28,95.613 28,46.117 70.864,21.369 113.728,46.117 		"/>
		<polygon fill="none" stroke="#FFFFFF" stroke-width="3" stroke-miterlimit="10" points="113.728,95.613 70.864,120.361 28,95.613 
			28,46.117 70.864,21.369 113.728,46.117 		"/>
	</g>
	<defs>
		<filter id="Adobe_OpacityMaskFilter" filterUnits="userSpaceOnUse" x="26.5" y="19.637" width="88.729" height="102.456">
			
				<feColorMatrix  type="matrix" values="-1 0 0 0 1  0 -1 0 0 1  0 0 -1 0 1  0 0 0 1 0" color-interpolation-filters="sRGB" result="source"/>
		</filter>
	</defs>
	<mask maskUnits="userSpaceOnUse" x="26.5" y="19.637" width="88.729" height="102.456" id="SVGID_1_">
		<g filter="url(#Adobe_OpacityMaskFilter)">
			<image overflow="visible" width="93" height="107" xlink:href="9D783E7B.jpg"  transform="matrix(1 0 0 1 24.365 17.365)">
			</image>
		</g>
	</mask>
	<g opacity="0.84" mask="url(#SVGID_1_)">
		<polygon fill="#50514F" points="113.728,95.613 70.864,120.361 28,95.613 28,46.117 70.864,21.369 113.728,46.117 		"/>
		<polygon fill="none" stroke="#50514F" stroke-width="3" stroke-miterlimit="10" points="113.728,95.613 70.864,120.361 28,95.613 
			28,46.117 70.864,21.369 113.728,46.117 		"/>
	</g>
</g>
</svg>
