<svg width="29" height="31" viewBox="0 0 29 31" fill="none" xmlns="http://www.w3.org/2000/svg">
<path d="M23.0855 13.69H19.961C17.3987 13.69 15.3121 11.76 15.3121 9.39V6.5C15.3121 5.95 14.8256 5.5 14.231 5.5H9.64695C6.31704 5.5 3.625 7.5 3.625 11.07V19.93C3.625 23.5 6.31704 25.5 9.64695 25.5H18.1447C21.4746 25.5 24.1667 23.5 24.1667 19.93V14.69C24.1667 14.14 23.6802 13.69 23.0855 13.69ZM14.1986 19.28L12.0363 21.28C11.9606 21.35 11.8633 21.41 11.766 21.44C11.6687 21.48 11.5714 21.5 11.4633 21.5C11.3552 21.5 11.2579 21.48 11.1605 21.44C11.0741 21.41 10.9876 21.35 10.9227 21.29C10.9119 21.28 10.9011 21.28 10.9011 21.27L8.73879 19.27C8.42526 18.98 8.42526 18.5 8.73879 18.21C9.05232 17.92 9.57127 17.92 9.8848 18.21L10.6524 18.94V14.75C10.6524 14.34 11.02 14 11.4633 14C11.9065 14 12.2741 14.34 12.2741 14.75V18.94L13.0525 18.22C13.3661 17.93 13.885 17.93 14.1986 18.22C14.5121 18.51 14.5121 18.99 14.1986 19.28Z" fill="white"/>
<path d="M19.3592 11.7408C20.2029 11.75 21.3752 11.75 22.3787 11.75C22.8849 11.75 23.1513 11.1346 22.7961 10.7672C21.5172 9.43548 19.226 7.03829 17.9116 5.67897C17.5475 5.3024 16.917 5.55957 16.917 6.08309V9.28852C16.917 10.6295 18.0182 11.7408 19.3592 11.7408Z" fill="white"/>
</svg>
