<svg width="24" height="25" viewBox="0 0 24 25" fill="none" xmlns="http://www.w3.org/2000/svg">
<g id="vuesax/bold/note">
<g id="note">
<path id="Vector" d="M16 4.84961C16 6.08961 14.99 7.09961 13.75 7.09961H10.25C9.63 7.09961 9.07 6.84961 8.66 6.43961C8.25 6.02961 8 5.46961 8 4.84961C8 3.60961 9.01 2.59961 10.25 2.59961H13.75C14.37 2.59961 14.93 2.84961 15.34 3.25961C15.75 3.66961 16 4.22961 16 4.84961Z" fill="white"/>
<path id="Vector_2" d="M18.83 5.62933C18.6 5.43933 18.34 5.28933 18.06 5.17933C17.77 5.06933 17.48 5.29933 17.42 5.59933C17.08 7.30933 15.57 8.59933 13.75 8.59933H10.25C9.25 8.59933 8.31 8.20933 7.6 7.49933C7.08 6.97933 6.72 6.31933 6.58 5.60933C6.52 5.30933 6.22 5.06933 5.93 5.18933C4.77 5.65933 4 6.71933 4 8.84933V18.5993C4 21.5993 5.79 22.5993 8 22.5993H16C18.21 22.5993 20 21.5993 20 18.5993V8.84933C20 7.21933 19.55 6.21933 18.83 5.62933ZM8 12.8493H12C12.41 12.8493 12.75 13.1893 12.75 13.5993C12.75 14.0093 12.41 14.3493 12 14.3493H8C7.59 14.3493 7.25 14.0093 7.25 13.5993C7.25 13.1893 7.59 12.8493 8 12.8493ZM16 18.3493H8C7.59 18.3493 7.25 18.0093 7.25 17.5993C7.25 17.1893 7.59 16.8493 8 16.8493H16C16.41 16.8493 16.75 17.1893 16.75 17.5993C16.75 18.0093 16.41 18.3493 16 18.3493Z" fill="white"/>
</g>
</g>
</svg>
