<svg width="24" height="25" viewBox="0 0 24 25" fill="none" xmlns="http://www.w3.org/2000/svg">
<path d="M16 4.64941C16 5.88941 14.99 6.89941 13.75 6.89941H10.25C9.63 6.89941 9.07 6.64941 8.66 6.23941C8.25 5.82941 8 5.26941 8 4.64941C8 3.40941 9.01 2.39941 10.25 2.39941H13.75C14.37 2.39941 14.93 2.64941 15.34 3.05941C15.75 3.46941 16 4.02941 16 4.64941Z" fill="white"/>
<path d="M18.83 5.42913C18.6 5.23913 18.34 5.08913 18.06 4.97913C17.77 4.86913 17.48 5.09913 17.42 5.39913C17.08 7.10913 15.57 8.39913 13.75 8.39913H10.25C9.25 8.39913 8.31 8.00913 7.6 7.29913C7.08 6.77913 6.72 6.11913 6.58 5.40913C6.52 5.10913 6.22 4.86913 5.93 4.98913C4.77 5.45913 4 6.51913 4 8.64913V18.3991C4 21.3991 5.79 22.3991 8 22.3991H16C18.21 22.3991 20 21.3991 20 18.3991V8.64913C20 7.01913 19.55 6.01913 18.83 5.42913ZM8 12.6491H12C12.41 12.6491 12.75 12.9891 12.75 13.3991C12.75 13.8091 12.41 14.1491 12 14.1491H8C7.59 14.1491 7.25 13.8091 7.25 13.3991C7.25 12.9891 7.59 12.6491 8 12.6491ZM16 18.1491H8C7.59 18.1491 7.25 17.8091 7.25 17.3991C7.25 16.9891 7.59 16.6491 8 16.6491H16C16.41 16.6491 16.75 16.9891 16.75 17.3991C16.75 17.8091 16.41 18.1491 16 18.1491Z" fill="white"/>
</svg>
